<?xml version="1.0" encoding="UTF-8" standalone="no"?>
<!-- Generator: Adobe Illustrator 18.0.0, SVG Export Plug-In . SVG Version: 6.00 Build 0)  -->

<svg
   xmlns:dc="http://purl.org/dc/elements/1.1/"
   xmlns:cc="http://creativecommons.org/ns#"
   xmlns:rdf="http://www.w3.org/1999/02/22-rdf-syntax-ns#"
   xmlns:svg="http://www.w3.org/2000/svg"
   xmlns="http://www.w3.org/2000/svg"
   xmlns:sodipodi="http://sodipodi.sourceforge.net/DTD/sodipodi-0.dtd"
   xmlns:inkscape="http://www.inkscape.org/namespaces/inkscape"
   version="1.1"
   id="Capa_1"
   x="0px"
   y="0px"
   viewBox="0 0 11.601564 12.761719"
   xml:space="preserve"
   width="20.000002"
   height="22"
   inkscape:version="0.48.5 r10040"
   sodipodi:docname="add-point.svg"><metadata
     id="metadata3124"><rdf:RDF><cc:Work
         rdf:about=""><dc:format>image/svg+xml</dc:format><dc:type
           rdf:resource="http://purl.org/dc/dcmitype/StillImage" /></cc:Work></rdf:RDF></metadata><defs
     id="defs3122" /><sodipodi:namedview
     pagecolor="#ffffff"
     bordercolor="#666666"
     borderopacity="1"
     objecttolerance="10"
     gridtolerance="10"
     guidetolerance="10"
     inkscape:pageopacity="0"
     inkscape:pageshadow="2"
     inkscape:window-width="799"
     inkscape:window-height="480"
     id="namedview3120"
     showgrid="false"
     fit-margin-top="1"
     fit-margin-left="1"
     fit-margin-right="1"
     fit-margin-bottom="1"
     inkscape:zoom="0.46875"
     inkscape:cx="9.9999996"
     inkscape:cy="11.000002"
     inkscape:window-x="620"
     inkscape:window-y="213"
     inkscape:window-maximized="0"
     inkscape:current-layer="Capa_1" /><g
     id="g3084"
     transform="matrix(0.0434295,0,0,0.0390625,-0.64849898,0.58007805)"><path
       d="m 190.201,110.768 c 0,-28.418 -22.966,-51.537 -51.194,-51.537 -28.229,0 -51.195,23.119 -51.195,51.537 0,28.417 22.967,51.536 51.195,51.536 28.228,0 51.194,-23.119 51.194,-51.536 z m -51.194,31.248 c -17.043,0 -30.907,-14.018 -30.907,-31.248 0,-17.23 13.864,-31.249 30.907,-31.249 17.042,0 30.906,14.019 30.906,31.249 0,17.229 -13.864,31.248 -30.906,31.248 z"
       id="path3086"
       inkscape:connector-curvature="0"
       style="fill:#3e9eff" /><path
       d="M 258.567,192.041 H 234.843 V 175.58 c 8.984,-20.684 14.881,-42.685 14.881,-64.812 C 249.725,49.689 200.057,0 139.007,0 77.957,0 28.289,49.689 28.289,110.768 c 0,91.046 99.767,179.96 104.014,183.701 1.915,1.686 4.31,2.531 6.704,2.531 2.395,0 4.789,-0.845 6.705,-2.531 1.598,-1.408 16.73,-14.891 34.978,-36.002 v 11.455 c 0,5.602 4.542,10.143 10.144,10.143 H 224.7 c 5.602,0 10.144,-4.542 10.144,-10.143 v -23.725 h 23.724 c 5.602,0 10.143,-4.542 10.143,-10.144 v -33.869 c 0,-5.601 -4.542,-10.143 -10.144,-10.143 z m -119.565,80.917 c -21.987,-21.267 -90.425,-93.031 -90.425,-162.19 0,-49.892 40.566,-90.48 90.43,-90.48 49.863,0 90.43,40.589 90.43,90.48 0,15.87 -3.62,31.887 -9.457,47.405 h -29.146 c -5.602,0 -10.144,4.542 -10.144,10.144 v 23.725 h -23.723 c -5.602,0 -10.144,4.542 -10.144,10.144 v 33.869 c 0,5.602 4.542,10.144 10.144,10.144 h 7.31 c -10.271,11.826 -19.423,21.092 -25.275,26.759 z M 248.423,225.909 H 224.7 c -5.602,0 -10.145,4.542 -10.145,10.145 v 23.724 h -13.578 v -23.724 c 0,-5.602 -4.542,-10.145 -10.145,-10.145 H 167.11 v -13.58 h 23.723 c 5.603,0 10.145,-4.542 10.145,-10.145 V 178.46 h 13.578 v 23.724 c 0,5.602 4.542,10.145 10.145,10.145 h 23.723 v 13.58 z"
       id="path3088"
       inkscape:connector-curvature="0"
       style="fill:#3e9eff" /></g><g
     id="g3090"
     transform="translate(-142.69922,-142.11914)" /><g
     id="g3092"
     transform="translate(-142.69922,-142.11914)" /><g
     id="g3094"
     transform="translate(-142.69922,-142.11914)" /><g
     id="g3096"
     transform="translate(-142.69922,-142.11914)" /><g
     id="g3098"
     transform="translate(-142.69922,-142.11914)" /><g
     id="g3100"
     transform="translate(-142.69922,-142.11914)" /><g
     id="g3102"
     transform="translate(-142.69922,-142.11914)" /><g
     id="g3104"
     transform="translate(-142.69922,-142.11914)" /><g
     id="g3106"
     transform="translate(-142.69922,-142.11914)" /><g
     id="g3108"
     transform="translate(-142.69922,-142.11914)" /><g
     id="g3110"
     transform="translate(-142.69922,-142.11914)" /><g
     id="g3112"
     transform="translate(-142.69922,-142.11914)" /><g
     id="g3114"
     transform="translate(-142.69922,-142.11914)" /><g
     id="g3116"
     transform="translate(-142.69922,-142.11914)" /><g
     id="g3118"
     transform="translate(-142.69922,-142.11914)" /></svg>