<?xml version="1.0" encoding="UTF-8" standalone="no"?>
<!-- Generator: Adobe Illustrator 19.0.0, SVG Export Plug-In . SVG Version: 6.00 Build 0)  -->

<svg
   xmlns:dc="http://purl.org/dc/elements/1.1/"
   xmlns:cc="http://creativecommons.org/ns#"
   xmlns:rdf="http://www.w3.org/1999/02/22-rdf-syntax-ns#"
   xmlns:svg="http://www.w3.org/2000/svg"
   xmlns="http://www.w3.org/2000/svg"
   xmlns:sodipodi="http://sodipodi.sourceforge.net/DTD/sodipodi-0.dtd"
   xmlns:inkscape="http://www.inkscape.org/namespaces/inkscape"
   version="1.1"
   id="Layer_1"
   x="0px"
   y="0px"
   viewBox="0 0 24 21.999998"
   xml:space="preserve"
   width="24"
   height="21.999998"
   inkscape:version="0.48.5 r10040"
   sodipodi:docname="add-user.svg"><metadata
     id="metadata3277"><rdf:RDF><cc:Work
         rdf:about=""><dc:format>image/svg+xml</dc:format><dc:type
           rdf:resource="http://purl.org/dc/dcmitype/StillImage" /></cc:Work></rdf:RDF></metadata><defs
     id="defs3275" /><sodipodi:namedview
     pagecolor="#ffffff"
     bordercolor="#666666"
     borderopacity="1"
     objecttolerance="10"
     gridtolerance="10"
     guidetolerance="10"
     inkscape:pageopacity="0"
     inkscape:pageshadow="2"
     inkscape:window-width="795"
     inkscape:window-height="480"
     id="namedview3273"
     showgrid="false"
     fit-margin-top="1"
     fit-margin-left="1"
     fit-margin-right="1"
     fit-margin-bottom="1"
     inkscape:zoom="0.4609375"
     inkscape:cx="12"
     inkscape:cy="10.999999"
     inkscape:window-x="586"
     inkscape:window-y="237"
     inkscape:window-maximized="0"
     inkscape:current-layer="Layer_1" /><g
     id="g3231"
     transform="matrix(0.04296875,0,0,0.04977328,1,-1.7419602)"><g
       id="g3233"><path
         d="m 352.062,314.075 c -19.834,-20.912 -43.665,-36.124 -68.765,-44.408 25.008,-22.555 40.754,-55.191 40.754,-91.439 0,-67.899 -55.24,-123.139 -123.139,-123.139 -67.899,0 -123.14,55.24 -123.14,123.139 0,36.248 15.746,68.884 40.754,91.439 C 93.425,277.952 69.594,293.165 49.76,314.076 17.672,347.906 0,391.728 0,437.468 v 19.443 h 401.823 v -19.443 c 0,-45.74 -17.673,-89.562 -49.761,-123.393 z M 116.658,178.228 c 0,-46.457 37.796,-84.253 84.253,-84.253 46.457,0 84.253,37.796 84.253,84.253 0,46.457 -37.796,84.253 -84.253,84.253 -46.457,0 -84.253,-37.796 -84.253,-84.253 z M 40.256,418.025 c 9.65,-67.94 68.591,-116.658 121.769,-116.658 h 77.772 c 53.178,0 112.119,48.718 121.769,116.658 H 40.256 z"
         id="path3235"
         inkscape:connector-curvature="0"
         style="fill:#3e9eff" /></g></g><g
     id="g3237"
     transform="translate(-244,-245)"><g
       id="g3239"><polygon
         points="356.456,223.595 356.456,262.481 414.785,262.481 414.785,320.81 453.671,320.81 453.671,262.481 512,262.481 512,223.595 453.671,223.595 453.671,165.266 414.785,165.266 414.785,223.595 "
         id="polygon3241"
         transform="matrix(0.04296875,0,0,0.04977328,245,243.25804)"
         style="fill:#3e9eff" /></g></g><g
     id="g3243"
     transform="translate(-244,-245)" /><g
     id="g3245"
     transform="translate(-244,-245)" /><g
     id="g3247"
     transform="translate(-244,-245)" /><g
     id="g3249"
     transform="translate(-244,-245)" /><g
     id="g3251"
     transform="translate(-244,-245)" /><g
     id="g3253"
     transform="translate(-244,-245)" /><g
     id="g3255"
     transform="translate(-244,-245)" /><g
     id="g3257"
     transform="translate(-244,-245)" /><g
     id="g3259"
     transform="translate(-244,-245)" /><g
     id="g3261"
     transform="translate(-244,-245)" /><g
     id="g3263"
     transform="translate(-244,-245)" /><g
     id="g3265"
     transform="translate(-244,-245)" /><g
     id="g3267"
     transform="translate(-244,-245)" /><g
     id="g3269"
     transform="translate(-244,-245)" /><g
     id="g3271"
     transform="translate(-244,-245)" /></svg>