<?xml version="1.0" encoding="UTF-8" standalone="no"?>
<!-- Generator: Adobe Illustrator 19.1.0, SVG Export Plug-In . SVG Version: 6.00 Build 0)  -->

<svg
   xmlns:dc="http://purl.org/dc/elements/1.1/"
   xmlns:cc="http://creativecommons.org/ns#"
   xmlns:rdf="http://www.w3.org/1999/02/22-rdf-syntax-ns#"
   xmlns:svg="http://www.w3.org/2000/svg"
   xmlns="http://www.w3.org/2000/svg"
   xmlns:sodipodi="http://sodipodi.sourceforge.net/DTD/sodipodi-0.dtd"
   xmlns:inkscape="http://www.inkscape.org/namespaces/inkscape"
   version="1.1"
   id="Capa_1"
   x="0px"
   y="0px"
   viewBox="0 0 21.134609 21.134609"
   xml:space="preserve"
   width="22"
   height="22"
   inkscape:version="0.48.5 r10040"
   sodipodi:docname="add.svg"><metadata
     id="metadata3167"><rdf:RDF><cc:Work
         rdf:about=""><dc:format>image/svg+xml</dc:format><dc:type
           rdf:resource="http://purl.org/dc/dcmitype/StillImage" /><dc:title /></cc:Work></rdf:RDF></metadata><defs
     id="defs3165" /><sodipodi:namedview
     pagecolor="#ffffff"
     bordercolor="#ffffff"
     borderopacity="1"
     objecttolerance="10"
     gridtolerance="10"
     guidetolerance="10"
     inkscape:pageopacity="0"
     inkscape:pageshadow="2"
     inkscape:window-width="1920"
     inkscape:window-height="1030"
     id="namedview3163"
     showgrid="false"
     inkscape:zoom="6.6015625"
     inkscape:cx="1.9910848"
     inkscape:cy="20.455888"
     inkscape:window-x="0"
     inkscape:window-y="0"
     inkscape:window-maximized="1"
     inkscape:current-layer="Capa_1"
     fit-margin-top="1"
     fit-margin-left="1"
     fit-margin-right="1"
     fit-margin-bottom="1" /><g
     id="g3097"
     transform="matrix(0.0390625,0,0,0.03906266,0.96066406,0.960625)"><g
       id="g3099"><path
         d="M 465.167,211.614 H 280.245 V 26.691 c 0,-8.424 -11.439,-26.69 -34.316,-26.69 -22.877,0 -34.316,18.267 -34.316,26.69 V 211.615 H 26.69 C 18.267,211.614 0,223.053 0,245.929 c 0,22.876 18.267,34.316 26.69,34.316 h 184.924 v 184.924 c 0,8.422 11.438,26.69 34.316,26.69 22.878,0 34.316,-18.268 34.316,-26.69 V 280.245 H 465.17 c 8.422,0 26.69,-11.438 26.69,-34.316 0,-22.878 -18.27,-34.315 -26.693,-34.315 z"
         id="path3101"
         inkscape:connector-curvature="0"
         style="fill:#3e9eff" /></g><g
       id="g3103" /><g
       id="g3105" /><g
       id="g3107" /><g
       id="g3109" /><g
       id="g3111" /><g
       id="g3113" /><g
       id="g3115" /><g
       id="g3117" /><g
       id="g3119" /><g
       id="g3121" /><g
       id="g3123" /><g
       id="g3125" /><g
       id="g3127" /><g
       id="g3129" /><g
       id="g3131" /></g><g
     id="g3133"
     transform="translate(-20.137567,-450.58784)" /><g
     id="g3135"
     transform="translate(-20.137567,-450.58784)" /><g
     id="g3137"
     transform="translate(-20.137567,-450.58784)" /><g
     id="g3139"
     transform="translate(-20.137567,-450.58784)" /><g
     id="g3141"
     transform="translate(-20.137567,-450.58784)" /><g
     id="g3143"
     transform="translate(-20.137567,-450.58784)" /><g
     id="g3145"
     transform="translate(-20.137567,-450.58784)" /><g
     id="g3147"
     transform="translate(-20.137567,-450.58784)" /><g
     id="g3149"
     transform="translate(-20.137567,-450.58784)" /><g
     id="g3151"
     transform="translate(-20.137567,-450.58784)" /><g
     id="g3153"
     transform="translate(-20.137567,-450.58784)" /><g
     id="g3155"
     transform="translate(-20.137567,-450.58784)" /><g
     id="g3157"
     transform="translate(-20.137567,-450.58784)" /><g
     id="g3159"
     transform="translate(-20.137567,-450.58784)" /><g
     id="g3161"
     transform="translate(-20.137567,-450.58784)" /></svg>