<?xml version="1.0" encoding="UTF-8" standalone="no"?>
<!-- Generator: Adobe Illustrator 19.0.0, SVG Export Plug-In . SVG Version: 6.00 Build 0)  -->

<svg
   xmlns:dc="http://purl.org/dc/elements/1.1/"
   xmlns:cc="http://creativecommons.org/ns#"
   xmlns:rdf="http://www.w3.org/1999/02/22-rdf-syntax-ns#"
   xmlns:svg="http://www.w3.org/2000/svg"
   xmlns="http://www.w3.org/2000/svg"
   xmlns:sodipodi="http://sodipodi.sourceforge.net/DTD/sodipodi-0.dtd"
   xmlns:inkscape="http://www.inkscape.org/namespaces/inkscape"
   version="1.1"
   id="Capa_1"
   x="0px"
   y="0px"
   viewBox="0 0 21.011717 21.011719"
   xml:space="preserve"
   width="21.999998"
   height="22"
   inkscape:version="0.48.5 r10040"
   sodipodi:docname="back.svg"><metadata
     id="metadata3441"><rdf:RDF><cc:Work
         rdf:about=""><dc:format>image/svg+xml</dc:format><dc:type
           rdf:resource="http://purl.org/dc/dcmitype/StillImage" /></cc:Work></rdf:RDF></metadata><defs
     id="defs3439" /><sodipodi:namedview
     pagecolor="#ffffff"
     bordercolor="#666666"
     borderopacity="1"
     objecttolerance="10"
     gridtolerance="10"
     guidetolerance="10"
     inkscape:pageopacity="0"
     inkscape:pageshadow="2"
     inkscape:window-width="795"
     inkscape:window-height="480"
     id="namedview3437"
     showgrid="false"
     fit-margin-top="1"
     fit-margin-left="1"
     fit-margin-right="1"
     fit-margin-bottom="1"
     inkscape:zoom="0.5"
     inkscape:cx="10.999747"
     inkscape:cy="11.000272"
     inkscape:window-x="0"
     inkscape:window-y="0"
     inkscape:window-maximized="0"
     inkscape:current-layer="Capa_1" /><g
     id="g3403"
     transform="matrix(0.03906246,0,0,0.05296199,0.95507812,-2.4433611)"><path
       d="m 429.4,255.033 c -35.4,-43.1 -102.1,-94.4 -219.7,-98.8 v -79.8 c 0,-4.7 -2.7,-9.1 -7,-11.1 -4.3,-2 -9.4,-1.4 -13,1.6 L 4.5,219.633 c -2.8,2.3 -4.5,5.8 -4.5,9.4 0,3.7 1.6,7.1 4.4,9.4 l 185.2,153.3 c 3.7,3 8.7,3.7 13,1.6 4.3,-2 7,-6.3 7,-11.1 v -79.5 c 76.8,0.3 194.2,6 256.5,115.9 2.2,3.9 6.3,6.2 10.7,6.2 1,0 2.1,-0.1 3.1,-0.4 5.4,-1.4 9.1,-6.3 9.1,-11.8 0.1,-41.1 -15.6,-104 -59.6,-157.6 z m -232,23.2 0,0 c -3.3,0 -6.4,1.3 -8.7,3.6 -2.3,2.3 -3.6,5.4 -3.6,8.7 v 65.7 l -153.5,-127.1 153.6,-126.7 v 65.7 c 0,6.7 5.4,12.2 12.1,12.3 176,1.7 241.6,109 260.7,184.4 -75.8,-86.5 -189.3,-86.6 -260.6,-86.6 z"
       id="path3405"
       inkscape:connector-curvature="0"
       style="fill:#3e9eff" /></g><g
     id="g3407"
     transform="translate(-233.99438,-233.9944)" /><g
     id="g3409"
     transform="translate(-233.99438,-233.9944)" /><g
     id="g3411"
     transform="translate(-233.99438,-233.9944)" /><g
     id="g3413"
     transform="translate(-233.99438,-233.9944)" /><g
     id="g3415"
     transform="translate(-233.99438,-233.9944)" /><g
     id="g3417"
     transform="translate(-233.99438,-233.9944)" /><g
     id="g3419"
     transform="translate(-233.99438,-233.9944)" /><g
     id="g3421"
     transform="translate(-233.99438,-233.9944)" /><g
     id="g3423"
     transform="translate(-233.99438,-233.9944)" /><g
     id="g3425"
     transform="translate(-233.99438,-233.9944)" /><g
     id="g3427"
     transform="translate(-233.99438,-233.9944)" /><g
     id="g3429"
     transform="translate(-233.99438,-233.9944)" /><g
     id="g3431"
     transform="translate(-233.99438,-233.9944)" /><g
     id="g3433"
     transform="translate(-233.99438,-233.9944)" /><g
     id="g3435"
     transform="translate(-233.99438,-233.9944)" /></svg>