<?xml version="1.0" encoding="UTF-8" standalone="no"?>
<!-- Generator: Adobe Illustrator 19.0.0, SVG Export Plug-In . SVG Version: 6.00 Build 0)  -->

<svg
   xmlns:dc="http://purl.org/dc/elements/1.1/"
   xmlns:cc="http://creativecommons.org/ns#"
   xmlns:rdf="http://www.w3.org/1999/02/22-rdf-syntax-ns#"
   xmlns:svg="http://www.w3.org/2000/svg"
   xmlns="http://www.w3.org/2000/svg"
   xmlns:sodipodi="http://sodipodi.sourceforge.net/DTD/sodipodi-0.dtd"
   xmlns:inkscape="http://www.inkscape.org/namespaces/inkscape"
   version="1.1"
   id="Capa_1"
   x="0px"
   y="0px"
   viewBox="0 0 16.54168 16.54168"
   xml:space="preserve"
   width="22"
   height="22"
   inkscape:version="0.48.5 r10040"
   sodipodi:docname="cancel.svg"><metadata
     id="metadata3150"><rdf:RDF><cc:Work
         rdf:about=""><dc:format>image/svg+xml</dc:format><dc:type
           rdf:resource="http://purl.org/dc/dcmitype/StillImage" /></cc:Work></rdf:RDF></metadata><defs
     id="defs3148" /><sodipodi:namedview
     pagecolor="#ffffff"
     bordercolor="#666666"
     borderopacity="1"
     objecttolerance="10"
     gridtolerance="10"
     guidetolerance="10"
     inkscape:pageopacity="0"
     inkscape:pageshadow="2"
     inkscape:window-width="1920"
     inkscape:window-height="1030"
     id="namedview3146"
     showgrid="false"
     fit-margin-top="1"
     fit-margin-left="1"
     fit-margin-right="1"
     fit-margin-bottom="1"
     inkscape:zoom="0.46875"
     inkscape:cx="-385.79999"
     inkscape:cy="10.999994"
     inkscape:window-x="0"
     inkscape:window-y="0"
     inkscape:window-maximized="1"
     inkscape:current-layer="Capa_1" /><g
     id="g3097"
     transform="matrix(0.0390625,0,0,0.0390625,0.75189453,0.75189453)"><g
       id="Cancel"><path
         d="M 192.485,0 C 86.173,0 0,86.173 0,192.485 0,298.785 86.173,384.97 192.485,384.97 298.785,384.97 384.97,298.797 384.97,192.485 384.97,86.173 298.785,0 192.485,0 z m 0,360.909 c -93.018,0 -168.424,-75.406 -168.424,-168.424 0,-93.018 75.406,-168.424 168.424,-168.424 93.018,0 168.424,75.406 168.424,168.424 0,93.018 -75.406,168.424 -168.424,168.424 z"
         id="path3100"
         inkscape:connector-curvature="0"
         style="fill:#3e9eff" /><path
         d="m 273.437,255.897 -63.376,-63.388 63.015,-62.497 c 4.752,-4.704 4.752,-12.319 0,-17.011 -4.74,-4.692 -12.439,-4.692 -17.179,0 l -62.931,62.413 -63.869,-63.881 c -4.74,-4.764 -12.439,-4.764 -17.179,0 -4.74,4.752 -4.74,12.475 0,17.227 l 63.773,63.785 -64.134,63.604 c -4.74,4.704 -4.74,12.319 0,17.011 4.74,4.704 12.439,4.704 17.191,0 l 64.049,-63.52 63.472,63.472 c 4.74,4.764 12.439,4.764 17.179,0 4.729,-4.74 4.729,-12.451 -0.011,-17.215 z"
         id="path3102"
         inkscape:connector-curvature="0"
         style="fill:#3e9eff" /></g><g
       id="g3104" /><g
       id="g3106" /><g
       id="g3108" /><g
       id="g3110" /><g
       id="g3112" /><g
       id="g3114" /></g><g
     id="g3116"
     transform="translate(-184.21416,-184.21416)" /><g
     id="g3118"
     transform="translate(-184.21416,-184.21416)" /><g
     id="g3120"
     transform="translate(-184.21416,-184.21416)" /><g
     id="g3122"
     transform="translate(-184.21416,-184.21416)" /><g
     id="g3124"
     transform="translate(-184.21416,-184.21416)" /><g
     id="g3126"
     transform="translate(-184.21416,-184.21416)" /><g
     id="g3128"
     transform="translate(-184.21416,-184.21416)" /><g
     id="g3130"
     transform="translate(-184.21416,-184.21416)" /><g
     id="g3132"
     transform="translate(-184.21416,-184.21416)" /><g
     id="g3134"
     transform="translate(-184.21416,-184.21416)" /><g
     id="g3136"
     transform="translate(-184.21416,-184.21416)" /><g
     id="g3138"
     transform="translate(-184.21416,-184.21416)" /><g
     id="g3140"
     transform="translate(-184.21416,-184.21416)" /><g
     id="g3142"
     transform="translate(-184.21416,-184.21416)" /><g
     id="g3144"
     transform="translate(-184.21416,-184.21416)" /></svg>