<?xml version="1.0" encoding="UTF-8" standalone="no"?>
<!-- Generator: Adobe Illustrator 19.0.0, SVG Export Plug-In . SVG Version: 6.00 Build 0)  -->

<svg
   xmlns:dc="http://purl.org/dc/elements/1.1/"
   xmlns:cc="http://creativecommons.org/ns#"
   xmlns:rdf="http://www.w3.org/1999/02/22-rdf-syntax-ns#"
   xmlns:svg="http://www.w3.org/2000/svg"
   xmlns="http://www.w3.org/2000/svg"
   xmlns:sodipodi="http://sodipodi.sourceforge.net/DTD/sodipodi-0.dtd"
   xmlns:inkscape="http://www.inkscape.org/namespaces/inkscape"
   version="1.1"
   id="Capa_1"
   x="0px"
   y="0px"
   viewBox="0 0 22 22.000002"
   xml:space="preserve"
   width="22"
   height="22.000002"
   inkscape:version="0.48.5 r10040"
   sodipodi:docname="ch_pwd.svg"><metadata
     id="metadata3724"><rdf:RDF><cc:Work
         rdf:about=""><dc:format>image/svg+xml</dc:format><dc:type
           rdf:resource="http://purl.org/dc/dcmitype/StillImage" /></cc:Work></rdf:RDF></metadata><defs
     id="defs3722" /><sodipodi:namedview
     pagecolor="#ffffff"
     bordercolor="#666666"
     borderopacity="1"
     objecttolerance="10"
     gridtolerance="10"
     guidetolerance="10"
     inkscape:pageopacity="0"
     inkscape:pageshadow="2"
     inkscape:window-width="795"
     inkscape:window-height="480"
     id="namedview3720"
     showgrid="false"
     fit-margin-top="1"
     fit-margin-left="1"
     fit-margin-right="1"
     fit-margin-bottom="1"
     inkscape:zoom="0.4609375"
     inkscape:cx="11.0004"
     inkscape:cy="10.999498"
     inkscape:window-x="0"
     inkscape:window-y="0"
     inkscape:window-maximized="0"
     inkscape:current-layer="Capa_1" /><g
     id="g3726"
     transform="matrix(0.03906256,0,0,0.03906319,1,0.99984375)"><g
       id="g3666"><g
         id="g3668"><path
           id="path3670"
           d="m 511.997,135.944 v -30.941 c 0,-24.813 -20.189,-44.999 -45.002,-44.999 H 244.539 c -5.719,0 -10.859,-3.177 -13.417,-8.292 L 217.707,24.88 C 210.036,9.536 194.613,0.004 177.459,0.004 H 45.001 c -24.813,0 -44.998,20.187 -45,44.999 L 0,377.731 c 0,24.448 19.643,44.168 44.131,44.167 l 106.871,-0.001 v 45.099 c 0,24.813 20.187,44.999 44.999,44.999 H 316 c 24.813,0 44.999,-20.187 44.999,-44.999 v -44.999 h 105.995 0.007 c 24.811,-0.002 44.995,-20.188 44.995,-44.999 V 136.06 c 0,-0.02 0.003,-0.039 0.003,-0.058 10e-4,-0.019 -0.002,-0.039 -0.002,-0.058 z M 331,466.997 c 0,8.271 -6.729,15 -15,15 H 196.002 c -8.271,0 -15,-6.729 -15,-15 v -89.999 c 0,-8.271 6.729,-15 15,-15 H 316 c 8.271,0 15,6.729 15,15 v 89.999 z M 211.002,331.999 V 286 c 0,-24.813 20.187,-44.999 44.999,-44.999 C 280.814,241 301,261.187 301,286 v 45.999 h -89.998 z m 270.995,44.999 c 0,7.807 -6.065,15 -15.605,15 H 360.999 v -15 c 0,-19.555 -12.541,-36.227 -30,-42.419 V 286 c 0,-41.354 -33.644,-74.999 -74.999,-74.999 -41.354,0 -74.999,33.644 -74.999,74.999 v 48.579 c -17.459,6.192 -30,22.865 -30,42.419 v 15 L 44.13,391.999 c -7.849,0 -14.131,-6.345 -14.131,-14.268 L 30,151.002 h 451.997 v 225.996 z m 0,-255.996 H 30.001 V 45.004 C 30.002,36.732 36.73,30.003 45.002,30.003 h 132.457 c 5.718,0 10.858,3.177 13.416,8.292 l 13.417,26.833 c 7.672,15.343 23.095,24.875 40.248,24.875 h 222.456 c 8.271,0 15.003,6.729 15.003,15 v 15.999 z"
           inkscape:connector-curvature="0"
           style="fill:#3e9eff" /></g></g><g
       id="g3672"><g
         id="g3674"><path
           id="path3676"
           d="m 256.001,391.998 c -8.284,0 -15,6.716 -15,15 v 30 c 0,8.284 6.716,15 15,15 8.284,0 15,-6.716 15,-15 v -30 c 0,-8.284 -6.716,-15 -15,-15 z"
           inkscape:connector-curvature="0"
           style="fill:#3e9eff" /></g></g><g
       id="g3678"><g
         id="g3680"><path
           id="path3682"
           d="m 436.998,181.001 h -60.999 c -8.284,0 -15,6.716 -15,15 0,8.284 6.716,15 15,15 h 60.999 c 8.284,0 15,-6.716 15,-15 0,-8.284 -6.716,-15 -15,-15 z"
           inkscape:connector-curvature="0"
           style="fill:#3e9eff" /></g></g><g
       id="g3684"><g
         id="g3686"><path
           id="path3688"
           d="m 436.998,241 h -60.999 c -8.284,0 -15,6.716 -15,15 0,8.284 6.716,15 15,15 h 60.999 c 8.284,0 15,-6.716 15,-15 0,-8.284 -6.716,-15 -15,-15 z"
           inkscape:connector-curvature="0"
           style="fill:#3e9eff" /></g></g></g><g
     id="g3690"
     transform="translate(-244.9996,-244.9995)" /><g
     id="g3692"
     transform="translate(-244.9996,-244.9995)" /><g
     id="g3694"
     transform="translate(-244.9996,-244.9995)" /><g
     id="g3696"
     transform="translate(-244.9996,-244.9995)" /><g
     id="g3698"
     transform="translate(-244.9996,-244.9995)" /><g
     id="g3700"
     transform="translate(-244.9996,-244.9995)" /><g
     id="g3702"
     transform="translate(-244.9996,-244.9995)" /><g
     id="g3704"
     transform="translate(-244.9996,-244.9995)" /><g
     id="g3706"
     transform="translate(-244.9996,-244.9995)" /><g
     id="g3708"
     transform="translate(-244.9996,-244.9995)" /><g
     id="g3710"
     transform="translate(-244.9996,-244.9995)" /><g
     id="g3712"
     transform="translate(-244.9996,-244.9995)" /><g
     id="g3714"
     transform="translate(-244.9996,-244.9995)" /><g
     id="g3716"
     transform="translate(-244.9996,-244.9995)" /><g
     id="g3718"
     transform="translate(-244.9996,-244.9995)" /></svg>