<?xml version="1.0" encoding="UTF-8" standalone="no"?>
<!-- Generator: Adobe Illustrator 16.0.0, SVG Export Plug-In . SVG Version: 6.00 Build 0)  -->

<svg
   xmlns:dc="http://purl.org/dc/elements/1.1/"
   xmlns:cc="http://creativecommons.org/ns#"
   xmlns:rdf="http://www.w3.org/1999/02/22-rdf-syntax-ns#"
   xmlns:svg="http://www.w3.org/2000/svg"
   xmlns="http://www.w3.org/2000/svg"
   xmlns:sodipodi="http://sodipodi.sourceforge.net/DTD/sodipodi-0.dtd"
   xmlns:inkscape="http://www.inkscape.org/namespaces/inkscape"
   version="1.1"
   id="Capa_1"
   x="0px"
   y="0px"
   width="22"
   height="22.000002"
   viewBox="0 0 13.105555 13.105556"
   xml:space="preserve"
   inkscape:version="0.48.5 r10040"
   sodipodi:docname="confirm.svg"><metadata
     id="metadata4045"><rdf:RDF><cc:Work
         rdf:about=""><dc:format>image/svg+xml</dc:format><dc:type
           rdf:resource="http://purl.org/dc/dcmitype/StillImage" /></cc:Work></rdf:RDF></metadata><defs
     id="defs4043" /><sodipodi:namedview
     pagecolor="#ffffff"
     bordercolor="#666666"
     borderopacity="1"
     objecttolerance="10"
     gridtolerance="10"
     guidetolerance="10"
     inkscape:pageopacity="0"
     inkscape:pageshadow="2"
     inkscape:window-width="795"
     inkscape:window-height="480"
     id="namedview4041"
     showgrid="false"
     fit-margin-top="1"
     fit-margin-left="1"
     fit-margin-right="1"
     fit-margin-bottom="1"
     inkscape:zoom="0.4609375"
     inkscape:cx="10.999999"
     inkscape:cy="11.000001"
     inkscape:window-x="0"
     inkscape:window-y="0"
     inkscape:window-maximized="0"
     inkscape:current-layer="Capa_1" /><g
     id="g4003"
     transform="matrix(0.0390625,0,0,0.03906276,0.59570703,0.59566797)"><g
       id="g4005"><path
         d="M 152.502,0.001 C 68.412,0.001 0,68.412 0,152.501 c 0,84.089 68.412,152.5 152.502,152.5 84.089,0 152.5,-68.411 152.5,-152.5 0,-84.089 -68.411,-152.5 -152.5,-152.5 z m 0,280 C 82.197,280.001 25,222.806 25,152.501 c 0,-70.304 57.197,-127.5 127.502,-127.5 70.304,0 127.5,57.196 127.5,127.5 0,70.305 -57.196,127.5 -127.5,127.5 z"
         id="path4007"
         inkscape:connector-curvature="0"
         style="fill:#3e9eff" /><path
         d="m 218.473,93.97 -90.546,90.547 -41.398,-41.398 c -4.882,-4.881 -12.796,-4.881 -17.678,0 -4.881,4.882 -4.881,12.796 0,17.678 l 50.237,50.237 c 2.441,2.44 5.64,3.661 8.839,3.661 3.199,0 6.398,-1.221 8.839,-3.661 l 99.385,-99.385 c 4.881,-4.882 4.881,-12.796 0,-17.678 -4.882,-4.882 -12.797,-4.882 -17.678,-0.001 z"
         id="path4009"
         inkscape:connector-curvature="0"
         style="fill:#3e9eff" /></g></g><g
     id="g4011"
     transform="translate(-145.94822,-145.94822)" /><g
     id="g4013"
     transform="translate(-145.94822,-145.94822)" /><g
     id="g4015"
     transform="translate(-145.94822,-145.94822)" /><g
     id="g4017"
     transform="translate(-145.94822,-145.94822)" /><g
     id="g4019"
     transform="translate(-145.94822,-145.94822)" /><g
     id="g4021"
     transform="translate(-145.94822,-145.94822)" /><g
     id="g4023"
     transform="translate(-145.94822,-145.94822)" /><g
     id="g4025"
     transform="translate(-145.94822,-145.94822)" /><g
     id="g4027"
     transform="translate(-145.94822,-145.94822)" /><g
     id="g4029"
     transform="translate(-145.94822,-145.94822)" /><g
     id="g4031"
     transform="translate(-145.94822,-145.94822)" /><g
     id="g4033"
     transform="translate(-145.94822,-145.94822)" /><g
     id="g4035"
     transform="translate(-145.94822,-145.94822)" /><g
     id="g4037"
     transform="translate(-145.94822,-145.94822)" /><g
     id="g4039"
     transform="translate(-145.94822,-145.94822)" /></svg>