<?xml version="1.0" encoding="UTF-8" standalone="no"?>
<!-- Generator: Adobe Illustrator 19.0.0, SVG Export Plug-In . SVG Version: 6.00 Build 0)  -->

<svg
   xmlns:dc="http://purl.org/dc/elements/1.1/"
   xmlns:cc="http://creativecommons.org/ns#"
   xmlns:rdf="http://www.w3.org/1999/02/22-rdf-syntax-ns#"
   xmlns:svg="http://www.w3.org/2000/svg"
   xmlns="http://www.w3.org/2000/svg"
   xmlns:sodipodi="http://sodipodi.sourceforge.net/DTD/sodipodi-0.dtd"
   xmlns:inkscape="http://www.inkscape.org/namespaces/inkscape"
   version="1.1"
   id="Layer_1"
   x="0px"
   y="0px"
   viewBox="0 0 21.999955 19.999959"
   xml:space="preserve"
   width="21.999998"
   height="19.999998"
   inkscape:version="0.48.5 r10040"
   sodipodi:docname="customers.svg"><metadata
     id="metadata3160"><rdf:RDF><cc:Work
         rdf:about=""><dc:format>image/svg+xml</dc:format><dc:type
           rdf:resource="http://purl.org/dc/dcmitype/StillImage" /></cc:Work></rdf:RDF></metadata><defs
     id="defs3158" /><sodipodi:namedview
     pagecolor="#ffffff"
     bordercolor="#666666"
     borderopacity="1"
     objecttolerance="10"
     gridtolerance="10"
     guidetolerance="10"
     inkscape:pageopacity="0"
     inkscape:pageshadow="2"
     inkscape:window-width="1920"
     inkscape:window-height="1030"
     id="namedview3156"
     showgrid="false"
     fit-margin-top="1"
     fit-margin-left="1"
     fit-margin-right="1"
     fit-margin-bottom="1"
     inkscape:zoom="0.5835012"
     inkscape:cx="-237.65532"
     inkscape:cy="-74.577609"
     inkscape:window-x="0"
     inkscape:window-y="0"
     inkscape:window-maximized="1"
     inkscape:current-layer="Layer_1" /><g
     id="g3120"
     transform="matrix(0.03906242,0,0,0.03837397,0.99999805,0.17622239)"><g
       id="g3122"><g
         id="g3171"><g
           id="g3102"
           transform="scale(1.000002,1.000002)"><g
             id="g3104"><path
               id="path3106"
               d="m 468.15,157.858 h -21.558 v -13.863 l 13.451,-14.814 c 6.983,-7.69 10.828,-17.645 10.828,-28.033 V 66.017 c 0,-24.565 -19.986,-44.55 -44.551,-44.55 h -20.492 c -24.565,0 -44.55,19.986 -44.55,44.55 v 35.131 c 0,10.388 3.846,20.344 10.827,28.033 l 13.453,14.816 v 13.861 H 364 c -20.944,0 -38.497,14.764 -42.821,34.43 -2.201,-0.308 -4.445,-0.478 -6.729,-0.478 h -25.252 v -16.958 l 15.404,-16.963 c 7.701,-8.482 11.943,-19.463 11.943,-30.92 V 87.4 c 0,-27.132 -22.073,-49.203 -49.204,-49.203 -4.252,0 -7.697,3.445 -7.697,7.697 0,4.252 3.445,7.697 7.697,7.697 18.643,0 33.81,15.166 33.81,33.809 v 39.568 c 0,7.623 -2.822,14.928 -7.945,20.571 l -15.862,17.469 c -2.128,1.369 -3.538,3.758 -3.538,6.478 v 28.022 c 0,4.252 3.445,7.697 7.697,7.697 h 32.949 c 18.207,0 33.021,14.813 33.021,33.021 v 48.298 H 164.13 v -48.298 c 0,-14.196 9.006,-26.326 21.602,-30.984 0.592,-0.124 1.156,-0.321 1.689,-0.573 3.077,-0.95 6.345,-1.465 9.729,-1.465 h 32.949 c 4.251,0 7.697,-3.445 7.697,-7.697 v -28.022 c 0,-2.719 -1.41,-5.109 -3.538,-6.478 l -15.862,-17.469 c -5.124,-5.643 -7.947,-12.949 -7.947,-20.571 V 87.4 c 0,-18.642 15.166,-33.809 33.81,-33.809 4.251,0 7.697,-3.445 7.697,-7.697 0,-4.252 -3.446,-7.697 -7.697,-7.697 -27.132,0 -49.204,22.072 -49.204,49.203 v 39.568 c 0,11.456 4.242,22.437 11.943,30.92 L 222.4,174.85 v 16.959 h -25.252 c -2.151,0 -4.265,0.155 -6.342,0.429 -4.342,-19.641 -21.881,-34.38 -42.808,-34.38 H 126.44 v -13.863 l 13.451,-14.814 c 6.983,-7.69 10.828,-17.645 10.828,-28.033 V 66.017 c 0,-24.565 -19.986,-44.55 -44.551,-44.55 h -20.49 c -24.565,0 -44.55,19.986 -44.55,44.55 v 35.131 c 0,10.388 3.845,20.344 10.828,28.033 l 13.452,14.815 v 13.862 H 43.85 C 19.671,157.858 0,177.529 0,201.708 v 49.716 c 0,4.252 3.446,7.697 7.697,7.697 h 119.758 c 4.251,0 7.697,-3.445 7.697,-7.697 0,-4.252 -3.446,-7.697 -7.697,-7.697 H 15.394 v -42.019 c 0,-15.69 12.765,-28.456 28.456,-28.456 h 29.255 c 4.251,0 7.697,-3.445 7.697,-7.697 v -24.88 c 0,-2.677 -1.367,-5.035 -3.441,-6.414 L 63.352,118.833 c -4.405,-4.851 -6.831,-11.131 -6.831,-17.684 V 66.017 C 56.521,49.94 69.6,36.861 85.677,36.861 h 20.492 c 16.077,0 29.157,13.079 29.157,29.156 v 35.131 c 0,6.553 -2.426,12.834 -6.831,17.684 l -14.01,15.429 c -2.073,1.379 -3.439,3.737 -3.439,6.413 v 24.88 c 0,4.252 3.446,7.697 7.697,7.697 h 29.255 c 13.975,0 25.621,10.129 28.002,23.43 -16.127,7.864 -27.265,24.424 -27.265,43.542 v 55.995 c 0,4.252 3.446,7.697 7.697,7.697 h 198.736 c 4.252,0 7.697,-3.445 7.697,-7.697 v -55.995 c 0,-18.971 -10.973,-35.419 -26.901,-43.355 2.305,-13.392 13.995,-23.617 28.036,-23.617 h 29.255 c 4.252,0 7.697,-3.445 7.697,-7.697 v -24.88 c 0,-2.678 -1.367,-5.036 -3.442,-6.415 l -14.008,-15.427 c -4.405,-4.85 -6.83,-11.131 -6.83,-17.684 V 66.017 c 0,-16.077 13.079,-29.156 29.156,-29.156 h 20.492 c 16.077,0 29.157,13.079 29.157,29.156 v 35.131 c 0,6.553 -2.426,12.834 -6.831,17.684 l -14.009,15.429 c -2.074,1.379 -3.44,3.737 -3.44,6.413 v 24.88 c 0,4.252 3.445,7.697 7.697,7.697 h 29.255 c 15.69,0 28.456,12.765 28.456,28.456 v 42.019 H 385.868 c -4.252,0 -7.697,3.445 -7.697,7.697 0,4.252 3.445,7.697 7.697,7.697 h 118.434 c 4.252,0 7.697,-3.445 7.697,-7.697 V 201.707 C 512,177.529 492.329,157.858 468.15,157.858 z"
               inkscape:connector-curvature="0"
               style="fill:#3e9eff" /></g></g><g
           id="g3108"
           transform="scale(1.000002,1.000002)"><g
             id="g3110"><path
               id="path3112"
               d="m 333.406,401.466 c -0.888,-2.738 -3.231,-4.751 -6.073,-5.218 L 285.287,389.346 265.73,351.49 c -1.321,-2.557 -3.959,-4.165 -6.838,-4.165 -2.879,0 -5.517,1.606 -6.838,4.165 l -19.557,37.856 -42.046,6.902 c -2.841,0.467 -5.184,2.479 -6.074,5.218 -0.89,2.738 -0.177,5.743 1.847,7.791 l 29.958,30.297 -6.429,42.12 c -0.434,2.846 0.755,5.697 3.085,7.388 1.34,0.974 2.928,1.471 4.525,1.471 1.178,0 2.362,-0.271 3.454,-0.82 l 38.073,-19.13 38.073,19.13 c 2.573,1.293 5.652,1.043 7.979,-0.651 2.33,-1.691 3.519,-4.542 3.085,-7.388 l -6.43,-42.12 29.958,-30.297 c 2.029,-2.048 2.741,-5.053 1.851,-7.791 z m -45.47,30.013 c -1.711,1.731 -2.502,4.169 -2.136,6.573 l 4.765,31.214 -28.216,-14.176 c -2.175,-1.092 -4.737,-1.092 -6.911,0 l -28.216,14.176 4.764,-31.214 c 0.367,-2.406 -0.425,-4.844 -2.136,-6.573 l -22.204,-22.454 31.16,-5.114 c 2.401,-0.395 4.475,-1.902 5.591,-4.063 l 14.494,-28.055 14.493,28.055 c 1.117,2.161 3.19,3.668 5.591,4.063 l 31.16,5.114 -22.199,22.454 z"
               inkscape:connector-curvature="0"
               style="fill:#3e9eff" /></g></g><g
           id="g3114"
           transform="scale(1.000002,1.000002)"><g
             id="g3116"><path
               id="path3118"
               d="m 501.894,344.869 c -0.89,-2.738 -3.231,-4.751 -6.071,-5.218 l -42.046,-6.902 -19.558,-37.856 c -1.321,-2.557 -3.959,-4.165 -6.838,-4.165 -2.88,0 -5.517,1.606 -6.838,4.165 l -19.557,37.856 -42.047,6.902 c -2.841,0.467 -5.184,2.479 -6.074,5.218 -0.89,2.738 -0.178,5.744 1.847,7.791 l 29.959,30.297 -6.43,42.121 c -0.434,2.846 0.755,5.697 3.085,7.388 2.33,1.692 5.408,1.945 7.979,0.651 l 38.073,-19.13 38.073,19.13 c 1.092,0.549 2.276,0.82 3.454,0.82 1.598,0 3.186,-0.496 4.525,-1.471 2.33,-1.691 3.519,-4.542 3.085,-7.388 l -6.43,-42.121 29.959,-30.297 c 2.028,-2.047 2.74,-5.053 1.85,-7.791 z m -45.47,30.014 c -1.711,1.73 -2.502,4.169 -2.136,6.573 l 4.765,31.215 -28.216,-14.176 c -1.088,-0.546 -2.271,-0.82 -3.456,-0.82 -1.185,0 -2.369,0.274 -3.456,0.82 l -28.216,14.176 4.765,-31.215 c 0.366,-2.406 -0.425,-4.844 -2.136,-6.573 l -22.203,-22.453 31.16,-5.114 c 2.402,-0.395 4.475,-1.902 5.591,-4.063 l 14.493,-28.055 14.494,28.055 c 1.117,2.161 3.19,3.668 5.591,4.063 l 31.159,5.114 -22.199,22.453 z"
               inkscape:connector-curvature="0"
               style="fill:#3e9eff" /></g></g><path
           id="path3124"
           d="m 164.919,344.87 c -0.889,-2.739 -3.233,-4.752 -6.074,-5.219 l -42.046,-6.902 -19.557,-37.856 c -1.322,-2.557 -3.959,-4.165 -6.839,-4.165 -2.88,0 -5.517,1.606 -6.839,4.165 l -19.555,37.857 -42.046,6.902 c -2.841,0.467 -5.184,2.479 -6.074,5.218 -0.89,2.738 -0.177,5.744 1.847,7.791 l 29.959,30.297 -6.429,42.121 c -0.434,2.846 0.755,5.697 3.085,7.388 2.329,1.692 5.407,1.945 7.979,0.651 l 38.073,-19.13 38.072,19.13 c 1.092,0.549 2.276,0.82 3.454,0.82 1.597,0 3.186,-0.496 4.525,-1.471 2.33,-1.691 3.519,-4.542 3.085,-7.388 l -6.429,-42.121 29.958,-30.297 c 2.027,-2.048 2.741,-5.053 1.851,-7.791 z m -45.472,30.013 c -1.711,1.73 -2.503,4.169 -2.136,6.573 l 4.764,31.215 -28.215,-14.176 c -1.087,-0.547 -2.271,-0.82 -3.456,-0.82 -1.185,0 -2.369,0.274 -3.456,0.82 l -28.216,14.176 4.765,-31.215 c 0.367,-2.406 -0.425,-4.844 -2.136,-6.573 l -22.2,-22.453 31.16,-5.114 c 2.401,-0.395 4.475,-1.902 5.592,-4.063 l 14.493,-28.055 14.493,28.055 c 1.117,2.161 3.191,3.668 5.592,4.063 l 31.16,5.114 -22.204,22.453 z"
           inkscape:connector-curvature="0"
           style="fill:#3e9eff" /></g></g></g><g
     id="g3126"
     transform="translate(-245.00003,-246.00056)" /><g
     id="g3128"
     transform="translate(-245.00003,-246.00056)" /><g
     id="g3130"
     transform="translate(-245.00003,-246.00056)" /><g
     id="g3132"
     transform="translate(-245.00003,-246.00056)" /><g
     id="g3134"
     transform="translate(-245.00003,-246.00056)" /><g
     id="g3136"
     transform="translate(-245.00003,-246.00056)" /><g
     id="g3138"
     transform="translate(-245.00003,-246.00056)" /><g
     id="g3140"
     transform="translate(-245.00003,-246.00056)" /><g
     id="g3142"
     transform="translate(-245.00003,-246.00056)" /><g
     id="g3144"
     transform="translate(-245.00003,-246.00056)" /><g
     id="g3146"
     transform="translate(-245.00003,-246.00056)" /><g
     id="g3148"
     transform="translate(-245.00003,-246.00056)" /><g
     id="g3150"
     transform="translate(-245.00003,-246.00056)" /><g
     id="g3152"
     transform="translate(-245.00003,-246.00056)" /><g
     id="g3154"
     transform="translate(-245.00003,-246.00056)" /></svg>