<?xml version="1.0" encoding="UTF-8" standalone="no"?>
<!-- Generator: Adobe Illustrator 19.0.0, SVG Export Plug-In . SVG Version: 6.00 Build 0)  -->

<svg
   xmlns:dc="http://purl.org/dc/elements/1.1/"
   xmlns:cc="http://creativecommons.org/ns#"
   xmlns:rdf="http://www.w3.org/1999/02/22-rdf-syntax-ns#"
   xmlns:svg="http://www.w3.org/2000/svg"
   xmlns="http://www.w3.org/2000/svg"
   xmlns:sodipodi="http://sodipodi.sourceforge.net/DTD/sodipodi-0.dtd"
   xmlns:inkscape="http://www.inkscape.org/namespaces/inkscape"
   version="1.1"
   id="Layer_1"
   x="0px"
   y="0px"
   viewBox="0 0 22 22"
   xml:space="preserve"
   width="22"
   height="22"
   inkscape:version="0.48.5 r10040"
   sodipodi:docname="edit.svg"><metadata
     id="metadata4396"><rdf:RDF><cc:Work
         rdf:about=""><dc:format>image/svg+xml</dc:format><dc:type
           rdf:resource="http://purl.org/dc/dcmitype/StillImage" /></cc:Work></rdf:RDF></metadata><defs
     id="defs4394" /><sodipodi:namedview
     pagecolor="#ffffff"
     bordercolor="#666666"
     borderopacity="1"
     objecttolerance="10"
     gridtolerance="10"
     guidetolerance="10"
     inkscape:pageopacity="0"
     inkscape:pageshadow="2"
     inkscape:window-width="795"
     inkscape:window-height="480"
     id="namedview4392"
     showgrid="false"
     fit-margin-top="1"
     fit-margin-left="1"
     fit-margin-right="1"
     fit-margin-bottom="1"
     inkscape:zoom="0.4609375"
     inkscape:cx="11.000314"
     inkscape:cy="11"
     inkscape:window-x="0"
     inkscape:window-y="0"
     inkscape:window-maximized="0"
     inkscape:current-layer="Layer_1" /><g
     id="g4398"
     transform="matrix(0.0401457,0,0,0.0390625,0.72271365,1)"><g
       id="g4350"><g
         id="g4352"><path
           id="path4354"
           d="m 397.736,78.378 c 6.824,0 12.358,-5.533 12.358,-12.358 V 27.027 C 410.094,12.125 397.977,0 383.08,0 H 121.641 c -3.277,0 -6.42,1.303 -8.739,3.62 L 10.527,105.995 c -2.317,2.317 -3.62,5.461 -3.62,8.738 V 484.972 C 6.908,499.875 19.032,512 33.935,512 h 349.144 c 14.897,0 27.014,-12.125 27.014,-27.027 V 296.289 c 10e-4,-6.824 -5.532,-12.358 -12.357,-12.358 -6.824,0 -12.358,5.533 -12.358,12.358 v 188.684 c 0,1.274 -1.031,2.311 -2.297,2.311 H 33.936 c -1.274,0 -2.311,-1.037 -2.311,-2.311 v -357.88 h 75.36 c 14.898,0 27.016,-12.12 27.016,-27.017 V 24.716 H 383.08 c 1.267,0 2.297,1.037 2.297,2.311 V 66.02 c 0,6.825 5.534,12.358 12.359,12.358 z m -288.451,21.697 c 0,1.269 -1.032,2.301 -2.3,2.301 H 49.107 l 60.178,-60.18 v 57.879 z"
           inkscape:connector-curvature="0"
           style="fill:#3e9eff" /></g></g><g
       id="g4356"><g
         id="g4358"><path
           id="path4360"
           d="M 492.865,100.396 478.324,85.857 c -16.304,-16.304 -42.832,-16.302 -59.138,0 L 303.763,201.28 H 103.559 c -6.825,0 -12.358,5.533 -12.358,12.358 0,6.825 5.533,12.358 12.358,12.358 h 175.488 l -74.379,74.379 H 103.559 c -6.825,0 -12.358,5.533 -12.358,12.358 0,6.825 5.533,12.358 12.358,12.358 h 76.392 l -0.199,0.199 c -1.508,1.508 -2.598,3.379 -3.169,5.433 l -19.088,68.747 h -53.936 c -6.825,0 -12.358,5.533 -12.358,12.358 0,6.825 5.533,12.358 12.358,12.358 h 63.332 c 0.001,0 2.709,-0.306 3.107,-0.41 0.065,-0.017 77.997,-21.642 77.997,-21.642 2.054,-0.57 3.926,-1.662 5.433,-3.169 L 492.866,159.53 c 16.302,-16.302 16.302,-42.83 -10e-4,-59.134 z m -308.221,293.677 10.087,-36.326 26.24,26.24 -36.327,10.086 z M 244.69,372.752 205.969,334.031 403.617,136.383 442.339,175.104 244.69,372.752 z m 230.697,-230.698 -15.571,15.571 -38.722,-38.722 15.571,-15.571 c 6.669,-6.668 17.517,-6.667 24.181,0 l 14.541,14.541 c 6.667,6.667 6.667,17.515 0,24.181 z"
           inkscape:connector-curvature="0"
           style="fill:#3e9eff" /></g></g></g><g
     id="g4362"
     transform="translate(-244.99969,-245)" /><g
     id="g4364"
     transform="translate(-244.99969,-245)" /><g
     id="g4366"
     transform="translate(-244.99969,-245)" /><g
     id="g4368"
     transform="translate(-244.99969,-245)" /><g
     id="g4370"
     transform="translate(-244.99969,-245)" /><g
     id="g4372"
     transform="translate(-244.99969,-245)" /><g
     id="g4374"
     transform="translate(-244.99969,-245)" /><g
     id="g4376"
     transform="translate(-244.99969,-245)" /><g
     id="g4378"
     transform="translate(-244.99969,-245)" /><g
     id="g4380"
     transform="translate(-244.99969,-245)" /><g
     id="g4382"
     transform="translate(-244.99969,-245)" /><g
     id="g4384"
     transform="translate(-244.99969,-245)" /><g
     id="g4386"
     transform="translate(-244.99969,-245)" /><g
     id="g4388"
     transform="translate(-244.99969,-245)" /><g
     id="g4390"
     transform="translate(-244.99969,-245)" /></svg>