<?xml version="1.0" encoding="UTF-8" standalone="no"?>
<!-- Generator: Adobe Illustrator 19.0.0, SVG Export Plug-In . SVG Version: 6.00 Build 0)  -->

<svg
   xmlns:dc="http://purl.org/dc/elements/1.1/"
   xmlns:cc="http://creativecommons.org/ns#"
   xmlns:rdf="http://www.w3.org/1999/02/22-rdf-syntax-ns#"
   xmlns:svg="http://www.w3.org/2000/svg"
   xmlns="http://www.w3.org/2000/svg"
   xmlns:sodipodi="http://sodipodi.sourceforge.net/DTD/sodipodi-0.dtd"
   xmlns:inkscape="http://www.inkscape.org/namespaces/inkscape"
   version="1.1"
   id="Layer_1"
   x="0px"
   y="0px"
   viewBox="0 0 16.58164 22"
   xml:space="preserve"
   width="16.58164"
   height="22"
   inkscape:version="0.48.5 r10040"
   sodipodi:docname="excel.svg"><metadata
     id="metadata3199"><rdf:RDF><cc:Work
         rdf:about=""><dc:format>image/svg+xml</dc:format><dc:type
           rdf:resource="http://purl.org/dc/dcmitype/StillImage" /></cc:Work></rdf:RDF></metadata><defs
     id="defs3197" /><sodipodi:namedview
     pagecolor="#ffffff"
     bordercolor="#666666"
     borderopacity="1"
     objecttolerance="10"
     gridtolerance="10"
     guidetolerance="10"
     inkscape:pageopacity="0"
     inkscape:pageshadow="2"
     inkscape:window-width="1920"
     inkscape:window-height="1030"
     id="namedview3195"
     showgrid="false"
     fit-margin-top="1"
     fit-margin-left="1"
     fit-margin-right="1"
     fit-margin-bottom="1"
     inkscape:zoom="7.375"
     inkscape:cx="37.170483"
     inkscape:cy="13.581641"
     inkscape:window-x="0"
     inkscape:window-y="0"
     inkscape:window-maximized="1"
     inkscape:current-layer="Layer_1" /><g
     id="g3201"
     transform="matrix(0.0390625,0,0,0.0390625,-1.7091797,1)"><g
       id="g3141"><g
         id="g3143"><path
           id="path3145"
           d="M 439.658,91.21 351.435,2.987 C 349.522,1.075 346.928,0 344.223,0 H 79.554 C 73.921,0 69.355,4.566 69.355,10.199 v 491.602 c 0,5.633 4.566,10.199 10.199,10.199 h 352.892 c 5.632,0 10.199,-4.566 10.199,-10.199 V 98.422 c 0,-2.705 -1.075,-5.299 -2.987,-7.212 z m -85.236,-56.387 53.401,53.4 h -53.401 v -53.4 z m 67.825,456.779 H 89.753 V 20.398 h 244.271 v 78.024 c 0,5.633 4.567,10.199 10.199,10.199 h 78.024 v 382.981 z"
           inkscape:connector-curvature="0"
           style="fill:#3e9eff" /></g></g><g
       id="g3147"><g
         id="g3149"><path
           id="path3151"
           d="M 282.012,454.884 H 119.331 c -5.633,0 -10.199,4.566 -10.199,10.199 0,5.633 4.566,10.199 10.199,10.199 h 162.681 c 5.632,0 10.199,-4.566 10.199,-10.199 0,-5.633 -4.567,-10.199 -10.199,-10.199 z"
           inkscape:connector-curvature="0"
           style="fill:#3e9eff" /></g></g><g
       id="g3153"><g
         id="g3155"><path
           id="path3157"
           d="m 334.026,454.884 h -11.067 c -5.632,0 -10.199,4.566 -10.199,10.199 0,5.633 4.567,10.199 10.199,10.199 h 11.067 c 5.632,0 10.199,-4.566 10.199,-10.199 0,-5.633 -4.567,-10.199 -10.199,-10.199 z"
           inkscape:connector-curvature="0"
           style="fill:#3e9eff" /></g></g><g
       id="g3159"><g
         id="g3161"><path
           id="path3163"
           d="m 311.6,263.139 75.737,-93.534 c 2.473,-3.056 2.972,-7.261 1.278,-10.809 -1.692,-3.549 -5.274,-5.808 -9.205,-5.808 h -84.952 c -3.078,0 -5.99,1.389 -7.926,3.781 L 256,194.475 225.468,156.769 c -1.936,-2.392 -4.849,-3.781 -7.926,-3.781 H 132.59 c -3.931,0 -7.513,2.259 -9.206,5.808 -1.693,3.548 -1.194,7.754 1.279,10.809 l 75.737,93.534 -75.737,93.534 c -2.474,3.056 -2.972,7.261 -1.279,10.809 1.693,3.548 5.274,5.808 9.206,5.808 h 84.952 c 3.077,0 5.99,-1.389 7.926,-3.781 L 256,331.804 286.531,369.51 c 1.936,2.392 4.849,3.781 7.926,3.781 h 84.953 c 3.931,0 7.513,-2.259 9.205,-5.808 1.693,-3.548 1.195,-7.754 -1.279,-10.809 L 311.6,263.139 z m -12.277,-89.753 h 58.706 l -59.553,73.545 -29.352,-36.25 30.199,-37.295 z m -86.646,179.506 h -58.706 l 59.552,-73.545 29.352,36.25 -30.198,37.295 z m 86.646,0 -145.352,-179.506 h 58.706 l 145.351,179.506 h -58.705 z"
           inkscape:connector-curvature="0"
           style="fill:#3e9eff" /></g></g></g><g
     id="g3165"
     transform="translate(-247.70918,-245)" /><g
     id="g3167"
     transform="translate(-247.70918,-245)" /><g
     id="g3169"
     transform="translate(-247.70918,-245)" /><g
     id="g3171"
     transform="translate(-247.70918,-245)" /><g
     id="g3173"
     transform="translate(-247.70918,-245)" /><g
     id="g3175"
     transform="translate(-247.70918,-245)" /><g
     id="g3177"
     transform="translate(-247.70918,-245)" /><g
     id="g3179"
     transform="translate(-247.70918,-245)" /><g
     id="g3181"
     transform="translate(-247.70918,-245)" /><g
     id="g3183"
     transform="translate(-247.70918,-245)" /><g
     id="g3185"
     transform="translate(-247.70918,-245)" /><g
     id="g3187"
     transform="translate(-247.70918,-245)" /><g
     id="g3189"
     transform="translate(-247.70918,-245)" /><g
     id="g3191"
     transform="translate(-247.70918,-245)" /><g
     id="g3193"
     transform="translate(-247.70918,-245)" /></svg>