<?xml version="1.0" encoding="UTF-8" standalone="no"?>
<!-- Generator: Adobe Illustrator 19.0.0, SVG Export Plug-In . SVG Version: 6.00 Build 0)  -->

<svg
   xmlns:dc="http://purl.org/dc/elements/1.1/"
   xmlns:cc="http://creativecommons.org/ns#"
   xmlns:rdf="http://www.w3.org/1999/02/22-rdf-syntax-ns#"
   xmlns:svg="http://www.w3.org/2000/svg"
   xmlns="http://www.w3.org/2000/svg"
   xmlns:sodipodi="http://sodipodi.sourceforge.net/DTD/sodipodi-0.dtd"
   xmlns:inkscape="http://www.inkscape.org/namespaces/inkscape"
   version="1.1"
   id="Layer_1"
   x="0px"
   y="0px"
   viewBox="0 0 20.000002 22"
   xml:space="preserve"
   width="20.000002"
   height="22"
   inkscape:version="0.48.5 r10040"
   sodipodi:docname="exit.svg"><metadata
     id="metadata3136"><rdf:RDF><cc:Work
         rdf:about=""><dc:format>image/svg+xml</dc:format><dc:type
           rdf:resource="http://purl.org/dc/dcmitype/StillImage" /></cc:Work></rdf:RDF></metadata><defs
     id="defs3134" /><sodipodi:namedview
     pagecolor="#ffffff"
     bordercolor="#666666"
     borderopacity="1"
     objecttolerance="10"
     gridtolerance="10"
     guidetolerance="10"
     inkscape:pageopacity="0"
     inkscape:pageshadow="2"
     inkscape:window-width="799"
     inkscape:window-height="480"
     id="namedview3132"
     showgrid="false"
     fit-margin-top="1"
     fit-margin-left="1"
     fit-margin-right="1"
     fit-margin-bottom="1"
     inkscape:zoom="0.46875"
     inkscape:cx="6.5756454"
     inkscape:cy="-86.277856"
     inkscape:window-x="645"
     inkscape:window-y="288"
     inkscape:window-maximized="0"
     inkscape:current-layer="Layer_1" /><g
     id="g3090"
     transform="matrix(0.04287348,0,0,0.0390625,-0.97560996,1)"><g
       id="g3092"><path
         d="m 281.6,245.76 c -11.29,0 -20.48,9.185 -20.48,20.48 0,11.295 9.19,20.48 20.48,20.48 11.29,0 20.48,-9.185 20.48,-20.48 0,-11.295 -9.19,-20.48 -20.48,-20.48 z"
         id="path3094"
         inkscape:connector-curvature="0"
         style="fill:#3e9eff" /></g></g><g
     id="g3096"
     transform="matrix(0.04287348,0,0,0.0390625,-0.97560996,1)"><g
       id="g3098"><path
         d="M 414.72,491.52 V 10.24 C 414.72,4.585 410.14,0 404.48,0 H 128 v 0.262 c -2.237,0.003 -4.445,0.476 -6.25,1.868 -2.52,1.94 -3.99,4.935 -3.99,8.11 V 491.52 H 46.08 V 512 H 128 c 0.87,0 1.75,-0.11 2.61,-0.335 l 194.56,-51.2 c 4.49,-1.185 7.63,-5.255 7.63,-9.905 V 61.44 c 0,-4.65 -3.14,-8.72 -7.63,-9.905 L 207.163,20.48 H 394.24 v 481.28 c 0,5.655 4.58,10.24 10.24,10.24 h 61.44 v -20.48 h -51.2 z M 312.32,69.335 v 373.33 l -174.08,45.81 V 23.525 l 174.08,45.81 z"
         id="path3100"
         inkscape:connector-curvature="0"
         style="fill:#3e9eff" /></g></g><g
     id="g3102"
     transform="translate(-246,-245)" /><g
     id="g3104"
     transform="translate(-246,-245)" /><g
     id="g3106"
     transform="translate(-246,-245)" /><g
     id="g3108"
     transform="translate(-246,-245)" /><g
     id="g3110"
     transform="translate(-246,-245)" /><g
     id="g3112"
     transform="translate(-246,-245)" /><g
     id="g3114"
     transform="translate(-246,-245)" /><g
     id="g3116"
     transform="translate(-246,-245)" /><g
     id="g3118"
     transform="translate(-246,-245)" /><g
     id="g3120"
     transform="translate(-246,-245)" /><g
     id="g3122"
     transform="translate(-246,-245)" /><g
     id="g3124"
     transform="translate(-246,-245)" /><g
     id="g3126"
     transform="translate(-246,-245)" /><g
     id="g3128"
     transform="translate(-246,-245)" /><g
     id="g3130"
     transform="translate(-246,-245)" /></svg>