<?xml version="1.0" encoding="UTF-8" standalone="no"?>
<!-- Generator: Adobe Illustrator 19.0.0, SVG Export Plug-In . SVG Version: 6.00 Build 0)  -->

<svg
   xmlns:dc="http://purl.org/dc/elements/1.1/"
   xmlns:cc="http://creativecommons.org/ns#"
   xmlns:rdf="http://www.w3.org/1999/02/22-rdf-syntax-ns#"
   xmlns:svg="http://www.w3.org/2000/svg"
   xmlns="http://www.w3.org/2000/svg"
   xmlns:sodipodi="http://sodipodi.sourceforge.net/DTD/sodipodi-0.dtd"
   xmlns:inkscape="http://www.inkscape.org/namespaces/inkscape"
   version="1.1"
   id="Capa_1"
   x="0px"
   y="0px"
   viewBox="0 0 22.000041 22.000053"
   xml:space="preserve"
   width="21.999998"
   height="22.00001"
   inkscape:version="0.48.5 r10040"
   sodipodi:docname="filter.svg"><metadata
     id="metadata3679"><rdf:RDF><cc:Work
         rdf:about=""><dc:format>image/svg+xml</dc:format><dc:type
           rdf:resource="http://purl.org/dc/dcmitype/StillImage" /></cc:Work></rdf:RDF></metadata><defs
     id="defs3677" /><sodipodi:namedview
     pagecolor="#ffffff"
     bordercolor="#666666"
     borderopacity="1"
     objecttolerance="10"
     gridtolerance="10"
     guidetolerance="10"
     inkscape:pageopacity="0"
     inkscape:pageshadow="2"
     inkscape:window-width="1920"
     inkscape:window-height="1030"
     id="namedview3675"
     showgrid="false"
     fit-margin-top="1"
     fit-margin-left="1"
     fit-margin-right="1"
     fit-margin-bottom="1"
     inkscape:zoom="20.85965"
     inkscape:cx="3.7028293"
     inkscape:cy="11.43412"
     inkscape:window-x="0"
     inkscape:window-y="0"
     inkscape:window-maximized="1"
     inkscape:current-layer="Capa_1" /><g
     id="g3639"
     transform="matrix(0.03906253,0,0,0.03906253,1.0000132,1.000002)"><g
       id="g3641"><path
         d="M 510.477,12.346 C 507.381,4.873 500.088,0 492,0 H 20.001 C 11.912,0 4.619,4.873 1.523,12.346 -1.573,19.82 0.138,28.422 5.858,34.142 L 187.037,215.321 V 492 c 0,8.089 4.873,15.382 12.347,18.478 7.476,3.096 16.078,1.383 21.796,-4.335 l 97.926,-97.925 c 3.75,-3.75 5.857,-8.838 5.857,-14.142 V 215.321 L 506.142,34.142 c 5.72,-5.72 7.431,-14.322 4.335,-21.796 z M 290.82,192.895 c -3.75,3.75 -5.857,8.838 -5.857,14.142 V 385.79 l -57.926,57.925 V 207.037 c 0,-5.304 -2.107,-10.392 -5.857,-14.142 L 68.285,40 H 443.716 L 290.82,192.895 z"
         id="path3643"
         inkscape:connector-curvature="0"
         style="fill:#3e9eff" /></g></g><g
     id="g3645"
     transform="translate(-244.99998,-245.0004)" /><g
     id="g3647"
     transform="translate(-244.99998,-245.0004)" /><g
     id="g3649"
     transform="translate(-244.99998,-245.0004)" /><g
     id="g3651"
     transform="translate(-244.99998,-245.0004)" /><g
     id="g3653"
     transform="translate(-244.99998,-245.0004)" /><g
     id="g3655"
     transform="translate(-244.99998,-245.0004)" /><g
     id="g3657"
     transform="translate(-244.99998,-245.0004)" /><g
     id="g3659"
     transform="translate(-244.99998,-245.0004)" /><g
     id="g3661"
     transform="translate(-244.99998,-245.0004)" /><g
     id="g3663"
     transform="translate(-244.99998,-245.0004)" /><g
     id="g3665"
     transform="translate(-244.99998,-245.0004)" /><g
     id="g3667"
     transform="translate(-244.99998,-245.0004)" /><g
     id="g3669"
     transform="translate(-244.99998,-245.0004)" /><g
     id="g3671"
     transform="translate(-244.99998,-245.0004)" /><g
     id="g3673"
     transform="translate(-244.99998,-245.0004)" /><path
     style="fill:#800000"
     d="m 16.360948,20.199952 c -0.205999,-0.246178 -0.267489,-0.351281 -0.230857,-0.394596 0.02746,-0.03247 0.416785,-0.371845 0.865161,-0.754162 0.448376,-0.382317 0.816528,-0.708693 0.818115,-0.72528 0.0016,-0.01659 -0.222409,-0.318606 -0.497769,-0.671152 l -0.500654,-0.640995 0.159425,-0.143818 c 0.08768,-0.0791 0.255426,-0.212671 0.372762,-0.296824 l 0.213337,-0.153005 0.495242,0.645877 0.495243,0.645876 0.124029,-0.113377 c 0.06822,-0.06236 0.434931,-0.380007 0.814923,-0.705888 l 0.690893,-0.592511 0.302563,0.332866 c 0.166409,0.183076 0.303141,0.345217 0.303849,0.360313 7.09e-4,0.0151 -0.364003,0.338688 -0.81047,0.719092 -0.446467,0.380404 -0.813026,0.713216 -0.814574,0.739583 -0.0015,0.02637 0.201947,0.312574 0.452212,0.636017 0.250266,0.323442 0.455029,0.606667 0.455029,0.629389 0,0.02272 -0.160621,0.162204 -0.356934,0.309962 l -0.356934,0.26865 -0.460341,-0.598418 c -0.253188,-0.32913 -0.475484,-0.597956 -0.493991,-0.597391 -0.01851,5.65e-4 -0.406913,0.324156 -0.863123,0.719092 -0.456209,0.394935 -0.844518,0.717657 -0.862909,0.71716 -0.01839,-4.98e-4 -0.159793,-0.151905 -0.314227,-0.33646 l 0,0 z"
     id="path4475"
     inkscape:connector-curvature="0" /></svg>