<?xml version="1.0" encoding="UTF-8" standalone="no"?>
<!-- Generator: Adobe Illustrator 19.0.0, SVG Export Plug-In . SVG Version: 6.00 Build 0)  -->

<svg
   xmlns:dc="http://purl.org/dc/elements/1.1/"
   xmlns:cc="http://creativecommons.org/ns#"
   xmlns:rdf="http://www.w3.org/1999/02/22-rdf-syntax-ns#"
   xmlns:svg="http://www.w3.org/2000/svg"
   xmlns="http://www.w3.org/2000/svg"
   xmlns:sodipodi="http://sodipodi.sourceforge.net/DTD/sodipodi-0.dtd"
   xmlns:inkscape="http://www.inkscape.org/namespaces/inkscape"
   version="1.1"
   id="Capa_1"
   x="0px"
   y="0px"
   viewBox="0 0 22.000041 22.000053"
   xml:space="preserve"
   width="21.999998"
   height="22.00001"
   inkscape:version="0.48.5 r10040"
   sodipodi:docname="filter.svg"><metadata
     id="metadata3679"><rdf:RDF><cc:Work
         rdf:about=""><dc:format>image/svg+xml</dc:format><dc:type
           rdf:resource="http://purl.org/dc/dcmitype/StillImage" /></cc:Work></rdf:RDF></metadata><defs
     id="defs3677" /><sodipodi:namedview
     pagecolor="#ffffff"
     bordercolor="#666666"
     borderopacity="1"
     objecttolerance="10"
     gridtolerance="10"
     guidetolerance="10"
     inkscape:pageopacity="0"
     inkscape:pageshadow="2"
     inkscape:window-width="1920"
     inkscape:window-height="1030"
     id="namedview3675"
     showgrid="false"
     fit-margin-top="1"
     fit-margin-left="1"
     fit-margin-right="1"
     fit-margin-bottom="1"
     inkscape:zoom="20.85965"
     inkscape:cx="-5.309786"
     inkscape:cy="11.43412"
     inkscape:window-x="0"
     inkscape:window-y="0"
     inkscape:window-maximized="1"
     inkscape:current-layer="Capa_1" /><g
     id="g3639"
     transform="matrix(0.03906253,0,0,0.03906253,1.0000132,1.000002)"><g
       id="g3641"><path
         d="M 510.477,12.346 C 507.381,4.873 500.088,0 492,0 H 20.001 C 11.912,0 4.619,4.873 1.523,12.346 -1.573,19.82 0.138,28.422 5.858,34.142 L 187.037,215.321 V 492 c 0,8.089 4.873,15.382 12.347,18.478 7.476,3.096 16.078,1.383 21.796,-4.335 l 97.926,-97.925 c 3.75,-3.75 5.857,-8.838 5.857,-14.142 V 215.321 L 506.142,34.142 c 5.72,-5.72 7.431,-14.322 4.335,-21.796 z M 290.82,192.895 c -3.75,3.75 -5.857,8.838 -5.857,14.142 V 385.79 l -57.926,57.925 V 207.037 c 0,-5.304 -2.107,-10.392 -5.857,-14.142 L 68.285,40 H 443.716 L 290.82,192.895 z"
         id="path3643"
         inkscape:connector-curvature="0"
         style="fill:#3e9eff" /></g></g><g
     id="g3645"
     transform="translate(-244.99998,-245.0004)" /><g
     id="g3647"
     transform="translate(-244.99998,-245.0004)" /><g
     id="g3649"
     transform="translate(-244.99998,-245.0004)" /><g
     id="g3651"
     transform="translate(-244.99998,-245.0004)" /><g
     id="g3653"
     transform="translate(-244.99998,-245.0004)" /><g
     id="g3655"
     transform="translate(-244.99998,-245.0004)" /><g
     id="g3657"
     transform="translate(-244.99998,-245.0004)" /><g
     id="g3659"
     transform="translate(-244.99998,-245.0004)" /><g
     id="g3661"
     transform="translate(-244.99998,-245.0004)" /><g
     id="g3663"
     transform="translate(-244.99998,-245.0004)" /><g
     id="g3665"
     transform="translate(-244.99998,-245.0004)" /><g
     id="g3667"
     transform="translate(-244.99998,-245.0004)" /><g
     id="g3669"
     transform="translate(-244.99998,-245.0004)" /><g
     id="g3671"
     transform="translate(-244.99998,-245.0004)" /><g
     id="g3673"
     transform="translate(-244.99998,-245.0004)" /><path
     style="fill:#800000"
     d="m 14.043049,19.290478 c -0.31147,-0.37222 -0.404443,-0.531136 -0.349056,-0.596628 0.04152,-0.04909 0.630179,-0.56223 1.308125,-1.140293 0.677943,-0.578064 1.234589,-1.071544 1.236989,-1.096623 0.0024,-0.02509 -0.336283,-0.481733 -0.752627,-1.014783 l -0.756989,-0.969185 0.241051,-0.217451 c 0.132572,-0.119599 0.386203,-0.321559 0.563616,-0.448799 l 0.322565,-0.231343 0.748806,0.976565 0.748808,0.976566 0.187533,-0.171427 c 0.103143,-0.09428 0.657615,-0.574569 1.232162,-1.067302 l 1.04463,-0.895878 0.457475,0.503295 c 0.251611,0.276811 0.458351,0.521967 0.45942,0.544793 0.0011,0.02283 -0.550371,0.512097 -1.225431,1.087267 -0.675058,0.57517 -1.229294,1.078383 -1.231635,1.11825 -0.0022,0.03986 0.305344,0.472611 0.683744,0.961657 0.378403,0.489044 0.688005,0.91728 0.688005,0.951636 0,0.03435 -0.24286,0.245252 -0.539685,0.468663 l -0.539684,0.406199 -0.696036,-0.904808 c -0.382821,-0.497645 -0.718931,-0.90411 -0.746913,-0.903256 -0.02798,8.4e-4 -0.615253,0.490124 -1.305043,1.087267 -0.689789,0.597142 -1.276911,1.085099 -1.304719,1.084346 -0.02781,-7.7e-4 -0.241606,-0.22968 -0.475111,-0.508728 l 0,0 z"
     id="path4475"
     inkscape:connector-curvature="0" /></svg>