<?xml version="1.0" encoding="UTF-8" standalone="no"?>
<!-- Generator: Adobe Illustrator 19.0.0, SVG Export Plug-In . SVG Version: 6.00 Build 0)  -->

<svg
   xmlns:dc="http://purl.org/dc/elements/1.1/"
   xmlns:cc="http://creativecommons.org/ns#"
   xmlns:rdf="http://www.w3.org/1999/02/22-rdf-syntax-ns#"
   xmlns:svg="http://www.w3.org/2000/svg"
   xmlns="http://www.w3.org/2000/svg"
   xmlns:sodipodi="http://sodipodi.sourceforge.net/DTD/sodipodi-0.dtd"
   xmlns:inkscape="http://www.inkscape.org/namespaces/inkscape"
   version="1.1"
   id="Layer_1"
   x="0px"
   y="0px"
   viewBox="0 0 22 22"
   xml:space="preserve"
   width="22"
   height="22"
   inkscape:version="0.48.5 r10040"
   sodipodi:docname="info.svg"><metadata
     id="metadata4812"><rdf:RDF><cc:Work
         rdf:about=""><dc:format>image/svg+xml</dc:format><dc:type
           rdf:resource="http://purl.org/dc/dcmitype/StillImage" /></cc:Work></rdf:RDF></metadata><defs
     id="defs4810" /><sodipodi:namedview
     pagecolor="#ffffff"
     bordercolor="#666666"
     borderopacity="1"
     objecttolerance="10"
     gridtolerance="10"
     guidetolerance="10"
     inkscape:pageopacity="0"
     inkscape:pageshadow="2"
     inkscape:window-width="795"
     inkscape:window-height="480"
     id="namedview4808"
     showgrid="false"
     fit-margin-top="1"
     fit-margin-left="1"
     fit-margin-right="1"
     fit-margin-bottom="1"
     inkscape:zoom="0.4609375"
     inkscape:cx="11"
     inkscape:cy="11"
     inkscape:window-x="0"
     inkscape:window-y="0"
     inkscape:window-maximized="0"
     inkscape:current-layer="Layer_1" /><g
     id="g4814"
     transform="matrix(0.0390625,0,0,0.0390625,1,1)"><g
       id="g4748"><g
         id="g4750"><path
           id="path4752"
           d="M 437.019,74.982 C 388.667,26.628 324.381,0 256,0 187.619,0 123.333,26.628 74.982,74.982 26.628,123.333 0,187.619 0,256 0,324.381 26.628,388.667 74.982,437.019 123.333,485.372 187.619,512 256,512 324.381,512 388.667,485.372 437.019,437.019 485.372,388.667 512,324.381 512,256 512,187.619 485.372,123.333 437.019,74.982 z M 256,491.602 C 126.089,491.602 20.398,385.912 20.398,256 20.398,126.088 126.089,20.398 256,20.398 385.911,20.398 491.602,126.089 491.602,256 491.602,385.911 385.911,491.602 256,491.602 z"
           inkscape:connector-curvature="0"
           style="fill:#3e9eff" /></g></g><g
       id="g4754"><g
         id="g4756"><path
           id="path4758"
           d="m 462.131,298.131 c -5.464,-1.392 -11.012,1.907 -12.4,7.367 -5.689,22.34 -15.158,43.377 -28.142,62.528 -3.161,4.663 -1.943,11.004 2.719,14.166 1.753,1.188 3.744,1.758 5.715,1.758 3.268,0 6.48,-1.568 8.451,-4.478 14.313,-21.11 24.751,-44.306 31.024,-68.94 1.39,-5.459 -1.907,-11.012 -7.367,-12.401 z"
           inkscape:connector-curvature="0"
           style="fill:#3e9eff" /></g></g><g
       id="g4760"><g
         id="g4762"><path
           id="path4764"
           d="m 466.104,245.801 c -5.632,0 -10.199,4.567 -10.199,10.199 0,2.915 -0.063,5.855 -0.188,8.739 -0.244,5.628 4.121,10.387 9.749,10.63 0.15,0.007 0.299,0.01 0.448,0.01 5.43,0 9.945,-4.282 10.182,-9.759 0.138,-3.176 0.207,-6.412 0.207,-9.62 0,-5.632 -4.567,-10.199 -10.199,-10.199 z"
           inkscape:connector-curvature="0"
           style="fill:#3e9eff" /></g></g><g
       id="g4766"><g
         id="g4768"><path
           id="path4770"
           d="m 256,172.877 c -19.683,0 -35.697,16.014 -35.697,35.697 V 386.04 c 0,19.683 16.014,35.697 35.697,35.697 19.683,0 35.697,-16.014 35.697,-35.697 V 208.574 c 0,-19.684 -16.014,-35.697 -35.697,-35.697 z m 15.299,213.163 c 0,8.436 -6.863,15.299 -15.299,15.299 -8.436,0 -15.299,-6.863 -15.299,-15.299 V 208.574 c 0,-8.436 6.863,-15.299 15.299,-15.299 8.436,0 15.299,6.863 15.299,15.299 V 386.04 z"
           inkscape:connector-curvature="0"
           style="fill:#3e9eff" /></g></g><g
       id="g4772"><g
         id="g4774"><path
           id="path4776"
           d="M 281.235,100.707 C 274.583,94.069 265.384,90.263 256,90.263 c -9.385,0 -18.584,3.806 -25.246,10.453 -6.642,6.644 -10.451,15.844 -10.451,25.244 0,9.384 3.806,18.583 10.46,25.251 6.652,6.639 15.851,10.446 25.237,10.446 9.385,0 18.584,-3.807 25.251,-10.461 6.639,-6.652 10.446,-15.851 10.446,-25.236 0,-9.4 -3.809,-18.601 -10.462,-25.253 z m -14.408,36.066 c -2.858,2.85 -6.804,4.486 -10.827,4.486 -4.026,0 -7.972,-1.636 -10.813,-4.47 -2.85,-2.858 -4.486,-6.805 -4.486,-10.828 0,-4.032 1.633,-7.976 4.469,-10.813 2.858,-2.85 6.805,-4.486 10.83,-4.486 4.024,0 7.971,1.636 10.819,4.478 2.847,2.847 4.479,6.79 4.479,10.82 10e-4,4.025 -1.635,7.971 -4.471,10.813 z"
           inkscape:connector-curvature="0"
           style="fill:#3e9eff" /></g></g></g><g
     id="g4778"
     transform="translate(-245,-245)" /><g
     id="g4780"
     transform="translate(-245,-245)" /><g
     id="g4782"
     transform="translate(-245,-245)" /><g
     id="g4784"
     transform="translate(-245,-245)" /><g
     id="g4786"
     transform="translate(-245,-245)" /><g
     id="g4788"
     transform="translate(-245,-245)" /><g
     id="g4790"
     transform="translate(-245,-245)" /><g
     id="g4792"
     transform="translate(-245,-245)" /><g
     id="g4794"
     transform="translate(-245,-245)" /><g
     id="g4796"
     transform="translate(-245,-245)" /><g
     id="g4798"
     transform="translate(-245,-245)" /><g
     id="g4800"
     transform="translate(-245,-245)" /><g
     id="g4802"
     transform="translate(-245,-245)" /><g
     id="g4804"
     transform="translate(-245,-245)" /><g
     id="g4806"
     transform="translate(-245,-245)" /></svg>