<?xml version="1.0" encoding="UTF-8" standalone="no"?>
<!-- Generator: Adobe Illustrator 18.0.0, SVG Export Plug-In . SVG Version: 6.00 Build 0)  -->

<svg
   xmlns:dc="http://purl.org/dc/elements/1.1/"
   xmlns:cc="http://creativecommons.org/ns#"
   xmlns:rdf="http://www.w3.org/1999/02/22-rdf-syntax-ns#"
   xmlns:svg="http://www.w3.org/2000/svg"
   xmlns="http://www.w3.org/2000/svg"
   xmlns:sodipodi="http://sodipodi.sourceforge.net/DTD/sodipodi-0.dtd"
   xmlns:inkscape="http://www.inkscape.org/namespaces/inkscape"
   version="1.1"
   id="Capa_1"
   x="0px"
   y="0px"
   viewBox="0 0 21.5625 19.765623"
   xml:space="preserve"
   width="24"
   height="21.999998"
   inkscape:version="0.48.5 r10040"
   sodipodi:docname="password.svg"><metadata
     id="metadata5313"><rdf:RDF><cc:Work
         rdf:about=""><dc:format>image/svg+xml</dc:format><dc:type
           rdf:resource="http://purl.org/dc/dcmitype/StillImage" /></cc:Work></rdf:RDF></metadata><defs
     id="defs5311" /><sodipodi:namedview
     pagecolor="#ffffff"
     bordercolor="#666666"
     borderopacity="1"
     objecttolerance="10"
     gridtolerance="10"
     guidetolerance="10"
     inkscape:pageopacity="0"
     inkscape:pageshadow="2"
     inkscape:window-width="795"
     inkscape:window-height="480"
     id="namedview5309"
     showgrid="false"
     fit-margin-top="1"
     fit-margin-left="1"
     fit-margin-right="1"
     fit-margin-bottom="1"
     inkscape:zoom="0.4609375"
     inkscape:cx="11.999997"
     inkscape:cy="10.999437"
     inkscape:window-x="0"
     inkscape:window-y="0"
     inkscape:window-maximized="0"
     inkscape:current-layer="Capa_1" /><g
     id="XMLID_481_"
     transform="matrix(0.04296875,0,0,0.04869804,0.8984375,-1.3177129)"><path
       id="XMLID_1948_"
       d="m 180.756,223.358 h 98.488 c 16.025,0 29.063,-13.038 29.063,-29.063 V 133.59 c 0,-4.151 -3.365,-7.516 -7.516,-7.516 h -12.71 v -22.485 c 0,-32.026 -26.055,-58.081 -58.08,-58.081 -32.025,0 -58.08,26.055 -58.08,58.081 v 22.485 h -12.71 c -4.152,0 -7.516,3.365 -7.516,7.516 v 60.705 c -0.002,16.025 13.036,29.063 29.061,29.063 z m 6.196,-119.769 c 0,-23.737 19.312,-43.048 43.048,-43.048 23.736,0 43.048,19.312 43.048,43.048 v 22.485 h -7.197 v -19.071 c 0,-19.768 -16.083,-35.85 -35.85,-35.85 -19.767,0 -35.85,16.082 -35.85,35.85 v 19.071 h -7.197 v -22.485 z m 22.23,22.485 v -19.071 c 0,-11.479 9.339,-20.818 20.818,-20.818 11.479,0 20.818,9.339 20.818,20.818 v 19.071 h -41.636 z m -42.456,15.033 h 126.549 v 53.188 c 0,7.737 -6.294,14.031 -14.03,14.031 h -98.488 c -7.737,0 -14.031,-6.294 -14.031,-14.031 v -53.188 z"
       inkscape:connector-curvature="0"
       style="fill:#3e9eff" /><path
       id="XMLID_1962_"
       d="m 230,192.345 c 4.152,0 7.516,-3.365 7.516,-7.516 v -20.226 c 0,-4.151 -3.365,-7.516 -7.516,-7.516 -4.151,0 -7.516,3.365 -7.516,7.516 v 20.226 c 0,4.151 3.364,7.516 7.516,7.516 z"
       inkscape:connector-curvature="0"
       style="fill:#3e9eff" /><path
       id="XMLID_1965_"
       d="M 417.909,257.879 H 42.092 C 18.882,257.879 0,276.761 0,299.97 v 72.43 c 0,23.209 18.882,42.091 42.092,42.091 h 375.817 c 23.21,0 42.091,-18.882 42.091,-42.091 v -72.43 c 0,-23.209 -18.882,-42.091 -42.091,-42.091 z M 15.033,372.4 v -72.43 c 0,-14.92 12.139,-27.059 27.059,-27.059 H 343.839 V 399.459 H 42.092 c -14.921,0 -27.059,-12.138 -27.059,-27.059 z m 429.934,0 c 0,14.92 -12.139,27.059 -27.059,27.059 H 358.87 V 272.912 h 59.038 c 14.92,0 27.059,12.139 27.059,27.059 V 372.4 z"
       inkscape:connector-curvature="0"
       style="fill:#3e9eff" /><path
       id="XMLID_1967_"
       d="m 402.178,305.588 c -2.936,-2.935 -7.694,-2.935 -10.631,0 -2.935,2.935 -2.935,7.694 0,10.63 l 19.968,19.968 -19.968,19.967 c -2.935,2.935 -2.935,7.694 0,10.63 1.468,1.468 3.391,2.202 5.315,2.202 1.923,0 3.847,-0.734 5.315,-2.202 l 25.283,-25.282 c 1.409,-1.409 2.201,-3.321 2.201,-5.315 0,-1.994 -0.792,-3.905 -2.201,-5.315 l -25.282,-25.283 z"
       inkscape:connector-curvature="0"
       style="fill:#3e9eff" /><path
       id="XMLID_1970_"
       d="m 69.978,309.038 c -14.969,0 -27.147,12.178 -27.147,27.147 0,14.969 12.178,27.147 27.147,27.147 14.969,0 27.147,-12.178 27.147,-27.147 0,-14.969 -12.178,-27.147 -27.147,-27.147 z m 0,39.262 c -6.68,0 -12.114,-5.435 -12.114,-12.115 0,-6.68 5.435,-12.115 12.114,-12.115 6.679,0 12.114,5.435 12.114,12.115 0,6.68 -5.434,12.115 -12.114,12.115 z"
       inkscape:connector-curvature="0"
       style="fill:#3e9eff" /><path
       id="XMLID_1974_"
       d="m 128.871,309.038 c -14.969,0 -27.147,12.178 -27.147,27.147 0,14.969 12.178,27.147 27.147,27.147 14.969,0 27.147,-12.178 27.147,-27.147 0,-14.969 -12.178,-27.147 -27.147,-27.147 z m 0,39.262 c -6.68,0 -12.114,-5.435 -12.114,-12.115 0,-6.68 5.435,-12.115 12.114,-12.115 6.68,0 12.114,5.435 12.114,12.115 0,6.68 -5.434,12.115 -12.114,12.115 z"
       inkscape:connector-curvature="0"
       style="fill:#3e9eff" /><path
       id="XMLID_1977_"
       d="m 187.764,309.038 c -14.969,0 -27.147,12.178 -27.147,27.147 0,14.969 12.178,27.147 27.147,27.147 14.969,0 27.148,-12.178 27.148,-27.147 0,-14.969 -12.179,-27.147 -27.148,-27.147 z m 0,39.262 c -6.68,0 -12.114,-5.435 -12.114,-12.115 0,-6.68 5.435,-12.115 12.114,-12.115 6.681,0 12.115,5.435 12.115,12.115 0,6.68 -5.435,12.115 -12.115,12.115 z"
       inkscape:connector-curvature="0"
       style="fill:#3e9eff" /><path
       id="XMLID_1978_"
       d="m 270.451,328.669 h -30.338 c -4.152,0 -7.516,3.365 -7.516,7.516 0,4.151 3.365,7.516 7.516,7.516 h 30.338 c 4.152,0 7.516,-3.365 7.516,-7.516 0,-4.151 -3.364,-7.516 -7.516,-7.516 z"
       inkscape:connector-curvature="0"
       style="fill:#3e9eff" /></g><g
     id="g5279"
     transform="translate(-219.21875,-220.11668)" /><g
     id="g5281"
     transform="translate(-219.21875,-220.11668)" /><g
     id="g5283"
     transform="translate(-219.21875,-220.11668)" /><g
     id="g5285"
     transform="translate(-219.21875,-220.11668)" /><g
     id="g5287"
     transform="translate(-219.21875,-220.11668)" /><g
     id="g5289"
     transform="translate(-219.21875,-220.11668)" /><g
     id="g5291"
     transform="translate(-219.21875,-220.11668)" /><g
     id="g5293"
     transform="translate(-219.21875,-220.11668)" /><g
     id="g5295"
     transform="translate(-219.21875,-220.11668)" /><g
     id="g5297"
     transform="translate(-219.21875,-220.11668)" /><g
     id="g5299"
     transform="translate(-219.21875,-220.11668)" /><g
     id="g5301"
     transform="translate(-219.21875,-220.11668)" /><g
     id="g5303"
     transform="translate(-219.21875,-220.11668)" /><g
     id="g5305"
     transform="translate(-219.21875,-220.11668)" /><g
     id="g5307"
     transform="translate(-219.21875,-220.11668)" /></svg>