<?xml version="1.0" encoding="UTF-8" standalone="no"?>
<!-- Generator: Adobe Illustrator 18.0.0, SVG Export Plug-In . SVG Version: 6.00 Build 0)  -->

<svg
   xmlns:dc="http://purl.org/dc/elements/1.1/"
   xmlns:cc="http://creativecommons.org/ns#"
   xmlns:rdf="http://www.w3.org/1999/02/22-rdf-syntax-ns#"
   xmlns:svg="http://www.w3.org/2000/svg"
   xmlns="http://www.w3.org/2000/svg"
   xmlns:sodipodi="http://sodipodi.sourceforge.net/DTD/sodipodi-0.dtd"
   xmlns:inkscape="http://www.inkscape.org/namespaces/inkscape"
   version="1.1"
   id="Capa_1"
   x="0px"
   y="0px"
   viewBox="0 0 2.2434729 2.3503047"
   xml:space="preserve"
   width="21.000002"
   height="22"
   inkscape:version="0.48.5 r10040"
   sodipodi:docname="points.svg"><metadata
     id="metadata5675"><rdf:RDF><cc:Work
         rdf:about=""><dc:format>image/svg+xml</dc:format><dc:type
           rdf:resource="http://purl.org/dc/dcmitype/StillImage" /></cc:Work></rdf:RDF></metadata><defs
     id="defs5673" /><sodipodi:namedview
     pagecolor="#ffffff"
     bordercolor="#666666"
     borderopacity="1"
     objecttolerance="10"
     gridtolerance="10"
     guidetolerance="10"
     inkscape:pageopacity="0"
     inkscape:pageshadow="2"
     inkscape:window-width="795"
     inkscape:window-height="480"
     id="namedview5671"
     showgrid="false"
     fit-margin-top="1"
     fit-margin-left="1"
     fit-margin-right="1"
     fit-margin-bottom="1"
     inkscape:zoom="0.4609375"
     inkscape:cx="10.502092"
     inkscape:cy="11.000003"
     inkscape:window-x="0"
     inkscape:window-y="0"
     inkscape:window-maximized="0"
     inkscape:current-layer="Capa_1" /><g
     id="g5633"
     transform="matrix(0.0404373,0,0,0.0390625,0.01582578,0.10683203)"><path
       d="m 52.088,39.132 c -3.512,-5.364 -8.2,-8.391 -13.251,-8.59 -0.27,-0.032 -0.543,-0.054 -0.821,-0.054 -0.491,0 -0.969,0.053 -1.431,0.151 -4.595,0.594 -8.827,3.552 -12.062,8.492 l -0.466,0.711 0.359,0.548 c 3.634,5.552 8.528,8.61 13.782,8.61 5.254,0 10.148,-3.058 13.783,-8.609 l 0.466,-0.711 -0.359,-0.548 z m -9.164,-1.735 c 0,2.707 -2.202,4.909 -4.909,4.909 -2.707,0 -4.909,-2.202 -4.909,-4.909 0,-2.343 1.652,-4.302 3.852,-4.788 0.446,-0.053 0.895,-0.087 1.348,-0.087 0.025,0 0.05,0.003 0.075,0.003 2.533,0.191 4.543,2.29 4.543,4.872 z M 38.198,47 c -4.387,0 -8.537,-2.537 -11.743,-7.161 1.559,-2.286 3.348,-4.069 5.28,-5.304 -0.4,0.874 -0.629,1.841 -0.629,2.863 0,3.81 3.1,6.909 6.909,6.909 3.809,0 6.909,-3.1 6.909,-6.909 0,-1.216 -0.318,-2.357 -0.872,-3.351 2.204,1.207 4.242,3.107 5.996,5.637 C 46.828,44.406 42.634,47 38.198,47 z"
       id="path5635"
       inkscape:connector-curvature="0"
       style="fill:#3e9eff" /><path
       d="m 14.605,19 c 0,3.859 3.14,7 7,7 3.86,0 7,-3.141 7,-7 0,-3.859 -3.14,-7 -7,-7 -3.86,0 -7,3.141 -7,7 z m 12,0 c 0,2.757 -2.243,5 -5,5 -2.757,0 -5,-2.243 -5,-5 0,-2.757 2.243,-5 5,-5 2.757,0 5,2.243 5,5 z"
       id="path5637"
       inkscape:connector-curvature="0"
       style="fill:#3e9eff" /><path
       d="M 24.457,47.393 21.468,51.302 7.687,31.4 C 2.487,24.467 3.233,13.08 9.283,7.031 12.527,3.787 16.84,2 21.428,2 c 4.588,0 8.901,1.787 12.146,5.031 4.43,4.431 6.156,11.947 4.294,18.704 -0.147,0.532 0.166,1.083 0.698,1.229 0.533,0.147 1.083,-0.166 1.229,-0.698 C 41.842,18.837 39.91,10.539 34.987,5.617 31.366,1.995 26.551,0 21.428,0 16.306,0 11.49,1.995 7.868,5.617 1.165,12.319 0.332,24.929 6.064,32.569 l 15.323,22.129 4.658,-6.091 c 0.335,-0.438 0.252,-1.066 -0.187,-1.401 -0.437,-0.335 -1.064,-0.252 -1.401,0.187 z"
       id="path5639"
       inkscape:connector-curvature="0"
       style="fill:#3e9eff" /></g><g
     id="g5641"
     transform="translate(-26.22704,-26.173848)" /><g
     id="g5643"
     transform="translate(-26.22704,-26.173848)" /><g
     id="g5645"
     transform="translate(-26.22704,-26.173848)" /><g
     id="g5647"
     transform="translate(-26.22704,-26.173848)" /><g
     id="g5649"
     transform="translate(-26.22704,-26.173848)" /><g
     id="g5651"
     transform="translate(-26.22704,-26.173848)" /><g
     id="g5653"
     transform="translate(-26.22704,-26.173848)" /><g
     id="g5655"
     transform="translate(-26.22704,-26.173848)" /><g
     id="g5657"
     transform="translate(-26.22704,-26.173848)" /><g
     id="g5659"
     transform="translate(-26.22704,-26.173848)" /><g
     id="g5661"
     transform="translate(-26.22704,-26.173848)" /><g
     id="g5663"
     transform="translate(-26.22704,-26.173848)" /><g
     id="g5665"
     transform="translate(-26.22704,-26.173848)" /><g
     id="g5667"
     transform="translate(-26.22704,-26.173848)" /><g
     id="g5669"
     transform="translate(-26.22704,-26.173848)" /></svg>