<?xml version="1.0" encoding="UTF-8" standalone="no"?>
<!-- Generator: Adobe Illustrator 16.0.0, SVG Export Plug-In . SVG Version: 6.00 Build 0)  -->

<svg
   xmlns:dc="http://purl.org/dc/elements/1.1/"
   xmlns:cc="http://creativecommons.org/ns#"
   xmlns:rdf="http://www.w3.org/1999/02/22-rdf-syntax-ns#"
   xmlns:svg="http://www.w3.org/2000/svg"
   xmlns="http://www.w3.org/2000/svg"
   xmlns:sodipodi="http://sodipodi.sourceforge.net/DTD/sodipodi-0.dtd"
   xmlns:inkscape="http://www.inkscape.org/namespaces/inkscape"
   version="1.1"
   id="Capa_1"
   x="0px"
   y="0px"
   width="16.545454"
   height="22"
   viewBox="0 0 18.128906 24.105469"
   xml:space="preserve"
   inkscape:version="0.48.5 r10040"
   sodipodi:docname="sync1.svg"><metadata
     id="metadata3494"><rdf:RDF><cc:Work
         rdf:about=""><dc:format>image/svg+xml</dc:format><dc:type
           rdf:resource="http://purl.org/dc/dcmitype/StillImage" /></cc:Work></rdf:RDF></metadata><defs
     id="defs3492" /><sodipodi:namedview
     pagecolor="#ffffff"
     bordercolor="#666666"
     borderopacity="1"
     objecttolerance="10"
     gridtolerance="10"
     guidetolerance="10"
     inkscape:pageopacity="0"
     inkscape:pageshadow="2"
     inkscape:window-width="1920"
     inkscape:window-height="1030"
     id="namedview3490"
     showgrid="false"
     fit-margin-top="1"
     fit-margin-left="1"
     fit-margin-right="1"
     fit-margin-bottom="1"
     inkscape:zoom="7.375"
     inkscape:cx="22.705322"
     inkscape:cy="25.762404"
     inkscape:window-x="0"
     inkscape:window-y="0"
     inkscape:window-maximized="1"
     inkscape:current-layer="Capa_1" /><g
     id="g3455"
     transform="matrix(0.0390625,0,0,0.0390625,-1.8925781,1.0957031)"><g
       id="loop"><path
         d="M 280.5,76.5 V 0 l -102,102 102,102 v -76.5 c 84.15,0 153,68.85 153,153 0,25.5 -7.65,51 -17.85,71.4 l 38.25,38.25 C 471.75,357 484.5,321.3 484.5,280.5 c 0,-112.2 -91.8,-204 -204,-204 z m 0,357 c -84.15,0 -153,-68.85 -153,-153 0,-25.5 7.65,-51 17.85,-71.4 L 107.1,170.85 C 89.25,204 76.5,239.7 76.5,280.5 c 0,112.2 91.8,204 204,204 V 561 l 102,-102 -102,-102 v 76.5 z"
         id="path3458"
         inkscape:connector-curvature="0"
         style="fill:#3e9eff" /></g></g><g
     id="g3460"
     transform="translate(-271.43555,-268.44727)" /><g
     id="g3462"
     transform="translate(-271.43555,-268.44727)" /><g
     id="g3464"
     transform="translate(-271.43555,-268.44727)" /><g
     id="g3466"
     transform="translate(-271.43555,-268.44727)" /><g
     id="g3468"
     transform="translate(-271.43555,-268.44727)" /><g
     id="g3470"
     transform="translate(-271.43555,-268.44727)" /><g
     id="g3472"
     transform="translate(-271.43555,-268.44727)" /><g
     id="g3474"
     transform="translate(-271.43555,-268.44727)" /><g
     id="g3476"
     transform="translate(-271.43555,-268.44727)" /><g
     id="g3478"
     transform="translate(-271.43555,-268.44727)" /><g
     id="g3480"
     transform="translate(-271.43555,-268.44727)" /><g
     id="g3482"
     transform="translate(-271.43555,-268.44727)" /><g
     id="g3484"
     transform="translate(-271.43555,-268.44727)" /><g
     id="g3486"
     transform="translate(-271.43555,-268.44727)" /><g
     id="g3488"
     transform="translate(-271.43555,-268.44727)" /></svg>