<?xml version="1.0" encoding="UTF-8" standalone="no"?>
<!-- Generator: Adobe Illustrator 17.1.0, SVG Export Plug-In . SVG Version: 6.00 Build 0)  -->

<svg
   xmlns:dc="http://purl.org/dc/elements/1.1/"
   xmlns:cc="http://creativecommons.org/ns#"
   xmlns:rdf="http://www.w3.org/1999/02/22-rdf-syntax-ns#"
   xmlns:svg="http://www.w3.org/2000/svg"
   xmlns="http://www.w3.org/2000/svg"
   xmlns:sodipodi="http://sodipodi.sourceforge.net/DTD/sodipodi-0.dtd"
   xmlns:inkscape="http://www.inkscape.org/namespaces/inkscape"
   version="1.1"
   id="Capa_1"
   x="0px"
   y="0px"
   viewBox="0 0 11.627577 12.790336"
   xml:space="preserve"
   width="19.999998"
   height="22"
   inkscape:version="0.48.5 r10040"
   sodipodi:docname="supplies.svg"><metadata
     id="metadata3318"><rdf:RDF><cc:Work
         rdf:about=""><dc:format>image/svg+xml</dc:format><dc:type
           rdf:resource="http://purl.org/dc/dcmitype/StillImage" /></cc:Work></rdf:RDF></metadata><defs
     id="defs3316" /><sodipodi:namedview
     pagecolor="#ffffff"
     bordercolor="#666666"
     borderopacity="1"
     objecttolerance="10"
     gridtolerance="10"
     guidetolerance="10"
     inkscape:pageopacity="0"
     inkscape:pageshadow="2"
     inkscape:window-width="795"
     inkscape:window-height="480"
     id="namedview3314"
     showgrid="false"
     fit-margin-top="1"
     fit-margin-left="1"
     fit-margin-right="1"
     fit-margin-bottom="1"
     inkscape:zoom="0.4609375"
     inkscape:cx="10.000008"
     inkscape:cy="10.999998"
     inkscape:window-x="0"
     inkscape:window-y="0"
     inkscape:window-maximized="0"
     inkscape:current-layer="Capa_1" /><g
     id="g3280"
     transform="matrix(0.04016095,0,0,0.0390625,-0.16348623,0.58137891)"><path
       d="m 276.783,119.911 c 1.685,-1.725 2.427,-4.017 2.246,-6.245 h 0.09 C 270.389,49.563 215.295,0 148.834,0 82.575,0 27.615,49.26 18.629,113.079 c -0.014,0.099 -0.032,0.197 -0.042,0.296 -0.013,0.098 -0.027,0.194 -0.04,0.291 h 0.023 c -0.141,2.188 0.606,4.423 2.26,6.112 l 90.027,91.888 H 90.333 c -13.808,0 -25.333,11.193 -25.333,25 v 36 c 0,13.807 11.525,25 25.333,25 h 116 c 13.808,0 24.667,-11.193 24.667,-25 v -36 c 0,-13.807 -10.859,-25 -24.667,-25 h -19.258 l 89.708,-91.755 z m -110.838,90.479 31.14,-104.235 c 6.882,-9.863 18.306,-16.321 31.245,-16.321 15.137,0 28.207,8.829 34.349,21.616 l -96.734,98.94 z M 116.982,107.045 c 6.806,-10.363 18.525,-17.212 31.852,-17.212 13.073,0 24.605,6.59 31.462,16.626 l -31.384,105.052 -31.93,-104.466 z m -82.406,3.9 C 40.817,98.432 53.734,89.833 68.67,89.833 c 13.01,0 24.49,6.527 31.359,16.481 L 131.763,210.141 34.576,110.945 z M 173,246.666 v 16 h -17 v 17 h -16 v -17 h -17 v -16 h 17 v -17 h 16 v 17 h 17 z"
       id="path3282"
       inkscape:connector-curvature="0"
       style="fill:#3e9eff" /></g><g
     id="g3284"
     transform="translate(-143.01921,-142.43783)" /><g
     id="g3286"
     transform="translate(-143.01921,-142.43783)" /><g
     id="g3288"
     transform="translate(-143.01921,-142.43783)" /><g
     id="g3290"
     transform="translate(-143.01921,-142.43783)" /><g
     id="g3292"
     transform="translate(-143.01921,-142.43783)" /><g
     id="g3294"
     transform="translate(-143.01921,-142.43783)" /><g
     id="g3296"
     transform="translate(-143.01921,-142.43783)" /><g
     id="g3298"
     transform="translate(-143.01921,-142.43783)" /><g
     id="g3300"
     transform="translate(-143.01921,-142.43783)" /><g
     id="g3302"
     transform="translate(-143.01921,-142.43783)" /><g
     id="g3304"
     transform="translate(-143.01921,-142.43783)" /><g
     id="g3306"
     transform="translate(-143.01921,-142.43783)" /><g
     id="g3308"
     transform="translate(-143.01921,-142.43783)" /><g
     id="g3310"
     transform="translate(-143.01921,-142.43783)" /><g
     id="g3312"
     transform="translate(-143.01921,-142.43783)" /></svg>