<?xml version="1.0" encoding="UTF-8" standalone="no"?>
<!-- Generator: Adobe Illustrator 18.0.0, SVG Export Plug-In . SVG Version: 6.00 Build 0)  -->

<svg
   xmlns:dc="http://purl.org/dc/elements/1.1/"
   xmlns:cc="http://creativecommons.org/ns#"
   xmlns:rdf="http://www.w3.org/1999/02/22-rdf-syntax-ns#"
   xmlns:svg="http://www.w3.org/2000/svg"
   xmlns="http://www.w3.org/2000/svg"
   xmlns:sodipodi="http://sodipodi.sourceforge.net/DTD/sodipodi-0.dtd"
   xmlns:inkscape="http://www.inkscape.org/namespaces/inkscape"
   version="1.1"
   id="Capa_1"
   x="0px"
   y="0px"
   viewBox="0 0 2.4609377 2.578125"
   xml:space="preserve"
   width="21.000002"
   height="22"
   inkscape:version="0.48.5 r10040"
   sodipodi:docname="sync.svg"><metadata
     id="metadata3326"><rdf:RDF><cc:Work
         rdf:about=""><dc:format>image/svg+xml</dc:format><dc:type
           rdf:resource="http://purl.org/dc/dcmitype/StillImage" /></cc:Work></rdf:RDF></metadata><defs
     id="defs3324" /><sodipodi:namedview
     pagecolor="#ffffff"
     bordercolor="#666666"
     borderopacity="1"
     objecttolerance="10"
     gridtolerance="10"
     guidetolerance="10"
     inkscape:pageopacity="0"
     inkscape:pageshadow="2"
     inkscape:window-width="1920"
     inkscape:window-height="1030"
     id="namedview3322"
     showgrid="false"
     fit-margin-top="1"
     fit-margin-left="1"
     fit-margin-right="1"
     fit-margin-bottom="1"
     inkscape:zoom="16"
     inkscape:cx="-13.194362"
     inkscape:cy="9.3799055"
     inkscape:window-x="0"
     inkscape:window-y="0"
     inkscape:window-maximized="1"
     inkscape:current-layer="Capa_1" /><g
     id="g3274"
     transform="matrix(0.03773835,0,0,0.0390625,0.09831832,0.1171875)"><path
       d="m 36.5,22 h -25 c -0.553,0 -1,0.448 -1,1 0,0.552 0.447,1 1,1 h 25 c 0.553,0 1,-0.448 1,-1 0,-0.552 -0.447,-1 -1,-1 z"
       id="path3276"
       inkscape:connector-curvature="0"
       style="fill:#3e9eff" /><path
       d="m 11.5,16 h 10 c 0.553,0 1,-0.448 1,-1 0,-0.552 -0.447,-1 -1,-1 h -10 c -0.553,0 -1,0.448 -1,1 0,0.552 0.447,1 1,1 z"
       id="path3278"
       inkscape:connector-curvature="0"
       style="fill:#3e9eff" /><path
       d="m 37.5,31 c 0,-0.552 -0.447,-1 -1,-1 h -25 c -0.553,0 -1,0.448 -1,1 0,0.552 0.447,1 1,1 h 25 c 0.553,0 1,-0.448 1,-1 z"
       id="path3280"
       inkscape:connector-curvature="0"
       style="fill:#3e9eff" /><path
       d="m 29.5,39 c 0,-0.552 -0.447,-1 -1,-1 h -17 c -0.553,0 -1,0.448 -1,1 0,0.552 0.447,1 1,1 h 17 c 0.553,0 1,-0.448 1,-1 z"
       id="path3282"
       inkscape:connector-curvature="0"
       style="fill:#3e9eff" /><path
       d="m 11.5,46 c -0.553,0 -1,0.448 -1,1 0,0.552 0.447,1 1,1 h 14 c 0.553,0 1,-0.448 1,-1 0,-0.552 -0.447,-1 -1,-1 h -14 z"
       id="path3284"
       inkscape:connector-curvature="0"
       style="fill:#3e9eff" /><path
       d="m 2.5,2 h 29 v 14 h 14 v 14 h 2 V 14.586 L 32.914,0 H 0.5 v 60 h 35 V 58 H 2.5 V 2 z M 33.5,3.414 44.086,14 H 33.5 V 3.414 z"
       id="path3286"
       inkscape:connector-curvature="0"
       style="fill:#3e9eff" /><path
       d="M 57.699,48.02 C 57.151,47.908 56.63,48.261 56.519,48.801 55.403,54.303 51.074,58 45.749,58 40.72,58 36.302,54.7 34.801,50 H 39.5 v -2 h -8 v 8 h 2 V 52.152 C 35.668,56.833 40.415,60 45.749,60 52.053,60 57.169,55.659 58.48,49.199 58.59,48.658 58.24,48.13 57.699,48.02 z"
       id="path3288"
       inkscape:connector-curvature="0"
       style="fill:#3e9eff" /><path
       d="m 57.5,36 v 4.308 C 55.25,35.855 50.796,33 45.749,33 39.64,33 34.208,36.997 32.54,42.72 c -0.154,0.53 0.15,1.085 0.681,1.24 0.53,0.156 1.085,-0.151 1.239,-0.68 1.398,-4.798 6.145,-8.28 11.289,-8.28 4.565,0 8.561,2.765 10.33,7 H 51.5 v 2 h 5.997 c 10e-4,0 0.002,0 0.003,0 10e-4,0 0.002,0 0.003,0 H 59.5 v -8 h -2 z"
       id="path3290"
       inkscape:connector-curvature="0"
       style="fill:#3e9eff" /></g><g
     id="g3292"
     transform="translate(-28.769532,-28.710937)" /><g
     id="g3294"
     transform="translate(-28.769532,-28.710937)" /><g
     id="g3296"
     transform="translate(-28.769532,-28.710937)" /><g
     id="g3298"
     transform="translate(-28.769532,-28.710937)" /><g
     id="g3300"
     transform="translate(-28.769532,-28.710937)" /><g
     id="g3302"
     transform="translate(-28.769532,-28.710937)" /><g
     id="g3304"
     transform="translate(-28.769532,-28.710937)" /><g
     id="g3306"
     transform="translate(-28.769532,-28.710937)" /><g
     id="g3308"
     transform="translate(-28.769532,-28.710937)" /><g
     id="g3310"
     transform="translate(-28.769532,-28.710937)" /><g
     id="g3312"
     transform="translate(-28.769532,-28.710937)" /><g
     id="g3314"
     transform="translate(-28.769532,-28.710937)" /><g
     id="g3316"
     transform="translate(-28.769532,-28.710937)" /><g
     id="g3318"
     transform="translate(-28.769532,-28.710937)" /><g
     id="g3320"
     transform="translate(-28.769532,-28.710937)" /></svg>